<svg xmlns="http://www.w3.org/2000/svg" data-ember-extension="1">

<symbol id="work-prochistka">

<path d="M24.45,18A17.73,17.73,0,0,0,23.24,9.6a2.59,2.59,0,0,1,.18-1.19,3.78,3.78,0,0,1,.77.39c2.43,2,5.3,2.21,8.28,2,1.37-.09,2.76,0,4.14,0a1.76,1.76,0,0,1,2,1.23c0.87,2.53,1.91,5.05.94,7.82-0.37,1.06-.57,2.18-0.94,3.24a1.79,1.79,0,0,1-2,1.22c-1.7-.07-3.41.09-5.1,0a9.35,9.35,0,0,0-7,2.16,2.68,2.68,0,0,1-1.09.25,2.35,2.35,0,0,1-.19-1.17C24.57,23.08,24.59,20.49,24.45,18Z"/>
<path d="M23.19,17.88c0.31,2.6-.52,5-1.28,7.35a3.62,3.62,0,0,1-1.41,2,8.24,8.24,0,0,1-2.9.64A1,1,0,0,1,17,27.2a2.07,2.07,0,0,1,.39-0.77c1.8-4.21,1.52-8.66,1.29-13.06A14.92,14.92,0,0,0,17.19,9c-0.51-1.29-.49-1.37.92-1.42,2.6-.09,3.06.14,3.82,2.7S23.58,15.24,23.19,17.88Z"/>
<path d="M14.91,18.21c0-3,.16-5.08-0.79-7.05a2.33,2.33,0,0,0-.88-0.86,1.43,1.43,0,0,0-.65.63,11.88,11.88,0,0,0-.86,2.31,20.89,20.89,0,0,0-.65,6.54,0.93,0.93,0,0,1-.05.62,1.66,1.66,0,0,1-.91.6,1.2,1.2,0,0,1-.94-0.52c-0.12-3.76-.56-7.57,1.56-11,1.33-2.18,2.6-2.34,4.43-.69a7.52,7.52,0,0,1,2.12,5.07c0.31,3.09.77,6.33-.47,9.4A30,30,0,0,1,15.56,26a2.66,2.66,0,0,1-3.65,1.22,1.63,1.63,0,0,1-.79-1.19,2.93,2.93,0,0,1,1.24-1.12c1.23,1,1.35-.25,1.61-0.81A11.59,11.59,0,0,0,14.91,18.21Z"/>
<path d="M10.19,22.31a9.38,9.38,0,0,1,1.27,0,2.68,2.68,0,0,1,.73.34,1.75,1.75,0,0,1-.4.49,11.12,11.12,0,0,0-5.29,7A4.19,4.19,0,0,1,4.83,32c-0.66.47-1.24,1.32-2.4,0.72S0.27,31.56.13,30.08A4,4,0,0,1,1.44,26.4c1.7-1.55,3.17-3.38,5.67-3.71,1-.13,2-0.37,3-0.56Z"/>
</symbol>

<symbol id="work-ttheater">

<path d="M24.16 5.424v-1.6h-5.96v-3.824h-6.512v3.8h-5.968v26.032h1.6v2.168h15.2v-2.168h1.6v-21.696h1.6v-2.712h-1.6zM21.992 28.2h-13.016v-1.080h-0.544v-1.6h0.544v-2.2h-0.544v-1.6h0.544v-1.112h13.016v7.592zM21.992 16.808h-13.016v-1.080h-0.544v-1.6h0.544v-2.192h-0.544v-1.6h0.544v-1.112h13.016v7.576zM20.904 21.688h-10.84v5.432h10.848v-5.424zM19.816 23.856h-1.6v-1.080h1.6v1.088zM20.904 10.296h-10.84v5.424h10.848v-5.416zM19.816 12.464h-1.6v-1.072h1.6v1.088z"/>
</symbol>

<symbol id="work-hotfloor">

<path d="M5.336 19.792l-2.216 7.592c-0.144 0.496-0.336 0.984-0.432 1.488-0.011 0.052-0.017 0.111-0.017 0.172 0 0.198 0.067 0.381 0.179 0.526 0.854 0.798 2.87 0.158 3.143-0.986 0.552-2.4 1.112-4.736 1.6-7.12 0.025-0.873 0.727-1.574 1.598-1.6 0.626-0.056 1.35-0.088 2.082-0.088s1.457 0.032 2.173 0.095c1.195 0.145 1.235 0.441 1.179 1.761-0.096 2.28-0.152 4.56-0.192 6.84 0 1.072 0.168 1.248 1.216 1.376 1.456 0.184 1.952-0.248 1.896-1.768-0.056-2.072-0.144-4.144-0.232-6.216-0.056-1.232 0.496-2.072 1.696-2.128 0.136-0.002 0.297-0.004 0.458-0.004 1.248 0 2.479 0.077 3.687 0.226 0.604 0.042 1.196 0.653 1.223 1.407 0.456 2.403 1.016 4.755 1.6 7.123 0.315 0.822 1.098 1.394 2.014 1.394 0.392 0 0.76-0.105 1.076-0.288 0.125-0.174 0.206-0.4 0.206-0.645 0-0.104-0.015-0.205-0.042-0.301q-1.23-4.080-2.526-8.136c-0.256-0.8-0.152-1.048 0.64-1.056 0.067-0.011 0.145-0.017 0.223-0.017 0.645 0 1.19 0.423 1.374 1.007 0.987 2.85 1.995 5.674 2.995 8.506 0.066 0.141 0.104 0.306 0.104 0.48 0 0.533-0.359 0.981-0.848 1.118-0.91 0.398-1.96 0.628-3.065 0.628-1.351 0-2.621-0.344-3.728-0.95-0.53-0.306-0.927-0.922-0.951-1.632-0.36-2.355-0.8-4.691-1.184-7.043-0.080-0.52-0.192-0.96-0.8-0.976-0.071-0.003-0.154-0.005-0.238-0.005-0.545 0-1.072 0.078-1.57 0.223-0.097 0.201-0.178 0.459-0.178 0.736 0 0.079 0.007 0.156 0.019 0.231 0.191 2.264 0.423 4.528 0.623 6.8 0.112 1.224-0.088 1.6-1.176 2.040-0.879 0.349-1.898 0.552-2.964 0.552s-2.085-0.202-3.020-0.571c-1.032-0.389-1.24-0.821-1.136-2.005q0.312-3.4 0.632-6.8c0.031-0.094 0.050-0.203 0.050-0.316 0-0.57-0.462-1.032-1.032-1.032-0.032 0-0.063 0.001-0.094 0.004-0.091-0.025-0.201-0.039-0.314-0.039-0.618 0-1.137 0.424-1.28 0.998-0.426 2.409-0.85 4.809-1.202 7.209-0.058 0.834-0.627 1.564-1.409 1.859-0.991 0.443-2.13 0.698-3.328 0.698-0.876 0-1.721-0.136-2.514-0.389-1.333-0.368-1.581-0.896-1.109-2.272 0.936-2.744 1.888-5.48 2.808-8.224 0.059-0.389 0.391-0.684 0.792-0.684 0.063 0 0.123 0.007 0.182 0.021 0.379 0.079 0.739 0.103 1.331 0.183z"/>
<path d="M15.272 4.512c0.289 0.647 0.457 1.403 0.457 2.198 0 0.458-0.056 0.903-0.161 1.328-0.128 0.986-0.312 2.002-0.496 3.026-0.36 1.928 0.168 3.768 0.632 5.696-1.097-0.899-1.819-2.282-1.848-3.835-0.015-0.589 0.124-2.093 0.383-3.556 0.273-1.537 0.673-3.177 1.033-4.857z"/>
<path d="M16.576 12.632c-0.056-3.96 0.936-7.888 0.056-11.824 1.952 2.84 1.856 5.824-0.056 11.824z"/>
<path d="M7.2 0.8c0.849 1.438 1.351 3.168 1.351 5.016 0 0.702-0.073 1.388-0.211 2.049-0.341 1.735-0.733 3.527-1.141 5.615-0.235-0.539-0.371-1.167-0.371-1.826 0-0.262 0.021-0.519 0.063-0.769 0.116-0.941 0.228-1.917 0.404-2.877 0.127-0.976 0.199-2.106 0.199-3.252 0-1.396-0.107-2.767-0.314-4.105z"/>
<path d="M24.88 16.48c-1.808-1.672-1.6-3.824-1.304-5.896s0.8-4 1.272-6.168c0.584 1.6 0.272 3.096 0.088 4.592 0.072-0.342-0.035 0.411-0.223 1.132-0.489 2.076-0.153 4.196 0.167 6.34z"/>
<path d="M25.808 13.088c0.216-1.992 0.512-4 0.616-5.976s0-4 0-5.848c1.688 2.008 1.48 6.4-0.328 11.88z"/>
<path d="M6.128 4.8c0 1.24-0.105 2.785-0.308 4.298-0.225 0.871-0.365 2.076-0.365 3.314 0 1.496 0.205 2.943 0.587 4.317-0.876-0.743-1.522-1.844-1.626-3.098-0.004-0.158-0.006-0.327-0.006-0.495 0-1.294 0.107-2.563 0.311-3.798 0.166-1.186 0.494-2.49 0.782-3.794-0.17 0.532 0.011-0.183 0.296-0.842z"/>
</symbol>

<symbol id="work-washer">

<path d="M27.2 0h-22.4c-1.325 0-2.4 1.075-2.4 2.4v29c0 0.331 0.269 0.6 0.6 0.6h25.976c0.007 0 0.016 0 0.024 0 0.331 0 0.6-0.269 0.6-0.6 0-0 0-0 0-0v-29c0-1.325-1.075-2.4-2.4-2.4zM3.624 30.792v-24.76h20.536c0.34 0 0.616-0.276 0.616-0.616s-0.276-0.616-0.616-0.616h-20.536v-2.4c0.009-0.649 0.528-1.174 1.174-1.192l22.402-0c0.648 0.018 1.167 0.543 1.176 1.191v2.401h-1.792c-0.334 0-0.604 0.27-0.604 0.604s0.27 0.604 0.604 0.604h1.792v24.784h-24.752z"/>
<path d="M16 8.448c-5.514 0-9.984 4.47-9.984 9.984s4.47 9.984 9.984 9.984c5.514 0 9.984-4.47 9.984-9.984 0-0.011-0-0.023-0-0.034-0.023-5.497-4.483-9.946-9.984-9.95zM16 27.2c-0.011 0-0.024 0-0.036 0-4.86 0-8.8-3.94-8.8-8.8s3.94-8.8 8.8-8.8c3.684 0 6.84 2.264 8.151 5.477l-0.531 0.059c-0.256 0-0.513 0.044-0.753 0.125-1.212-2.603-3.812-4.369-6.824-4.369-4.166 0-7.544 3.378-7.544 7.544s3.378 7.544 7.544 7.544c3.012 0 5.612-1.765 6.822-4.318 0.232 0.028 0.488 0.073 0.755 0.074h0.553c-1.348 3.23-4.481 5.461-8.136 5.464zM22.912 20.304v0c-0.311-0.221-0.512-0.581-0.512-0.987 0-0.002 0-0.003 0-0.005v-1.76c0-0 0-0 0-0 0-0.399 0.194-0.754 0.493-0.974l0.003-0.002c0.187-0.129 0.42-0.207 0.672-0.208h0.944c0.16 0.627 0.251 1.347 0.251 2.088s-0.092 1.461-0.264 2.149l-0.915-0.061c-0.239-0.003-0.48-0.090-0.675-0.234zM21.816 20.944c-1 2.264-3.225 3.816-5.813 3.816-3.499 0-6.336-2.837-6.336-6.336s2.837-6.336 6.336-6.336c2.588 0 4.814 1.552 5.797 3.776-0.385 0.468-0.632 1.046-0.632 1.68v1.76c0 0.002 0 0.005 0 0.008 0 0.635 0.247 1.212 0.649 1.642z"/>
<path d="M25.96 3.024c0-0.663-0.537-1.2-1.2-1.2s-1.2 0.537-1.2 1.2c0 0.663 0.537 1.2 1.2 1.2s1.2-0.537 1.2-1.2z"/>
<path d="M21.16 1.824c-0.645 0.022-1.16 0.551-1.16 1.199 0 0.663 0.537 1.2 1.2 1.2s1.2-0.537 1.2-1.199c0-0 0-0 0-0.001 0-0.663-0.537-1.2-1.2-1.2-0.014 0-0.028 0-0.042 0.001z"/>
<path d="M11.496 2.4h-5.432c-0.334 0-0.604 0.27-0.604 0.604s0.27 0.604 0.604 0.604h5.432c0.334 0 0.604-0.27 0.604-0.604s-0.27-0.604-0.604-0.604z"/>
<path d="M15.072 2.4h-1.168c-0.334 0-0.604 0.27-0.604 0.604s0.27 0.604 0.604 0.604h1.16c0.001 0 0.003 0 0.004 0 0.334 0 0.604-0.27 0.604-0.604 0-0.332-0.268-0.602-0.6-0.604z"/>
<path d="M16 13.28c-2.832 0.004-5.129 2.29-5.152 5.118 0 0.336 0.27 0.606 0.604 0.606s0.604-0.27 0.604-0.604c0.023-2.163 1.779-3.908 3.944-3.912 0.334 0 0.604-0.27 0.604-0.604s-0.27-0.604-0.604-0.604z"/>
</symbol>

<symbol id="work-heating">

<path d="M23.2 20.416c0 2.816 0 5.6 0 8.448 0.001 0.040 0.002 0.087 0.002 0.133 0 0.481-0.059 0.948-0.17 1.394-0.211 0.849-0.994 1.515-1.939 1.56-0.129 0.028-0.271 0.044-0.417 0.044-0.817 0-1.518-0.493-1.822-1.198-0.146-0.606-0.672-1.041-1.299-1.041-0.109 0-0.214 0.013-0.315 0.038-0.033 0.009-0.081 0.014-0.131 0.014-0.336 0-0.608-0.272-0.608-0.608 0-0.043 0.004-0.084 0.013-0.124-0.001-0.396-0.001-0.796-0.001-1.204-0.072-0.8 0.184-1.248 1.080-1.152 0.664 0.072 0.864-0.32 0.864-0.92 0-3.472 0-6.936 0-10.4 0.013-0.054 0.020-0.115 0.020-0.178 0-0.442-0.358-0.8-0.8-0.8-0.073 0-0.143 0.010-0.21 0.028-0.049 0.012-0.112 0.020-0.177 0.020-0.442 0-0.8-0.358-0.8-0.8 0-0.067 0.008-0.132 0.024-0.195 0.012-0.175 0.019-0.386 0.019-0.598s-0.007-0.423-0.022-0.632c-0.021-0.037-0.034-0.113-0.034-0.191 0-0.389 0.315-0.704 0.704-0.704 0.070 0 0.137 0.010 0.2 0.029 0.059 0.013 0.133 0.021 0.209 0.021 0.547 0 0.998-0.413 1.057-0.945 0.248-0.945 1.091-1.627 2.092-1.627 0.109 0 0.215 0.008 0.32 0.024 1.093 0.097 1.988 0.959 2.139 2.058 0.032 0.267 0.050 0.561 0.050 0.859 0 0.124-0.003 0.248-0.009 0.37q-0.039 4.135-0.039 8.279z"/>
<path d="M15.608 20.36c0 2.712 0 5.416 0 8.128 0 0.004 0 0.009 0 0.014 0 0.629-0.064 1.243-0.186 1.836-0.137 0.873-0.914 1.596-1.872 1.661-0.142 0.033-0.297 0.051-0.457 0.051-0.8 0-1.492-0.462-1.824-1.135-0.341-0.748-0.693-1.172-1.549-1.076-0.043 0.010-0.092 0.015-0.143 0.015-0.376 0-0.68-0.304-0.68-0.68 0-0.062 0.008-0.123 0.024-0.18-0.001-0.347-0.001-0.699-0.001-1.051-0.064-0.8 0.184-1.264 1.080-1.168 0.664 0.072 0.864-0.296 0.856-0.904q0-5.192 0-10.4c0-0.672-0.168-1.080-0.928-0.992s-1.064-0.336-1.016-1.072c0.010-0.135 0.015-0.293 0.015-0.452s-0.005-0.317-0.016-0.473c-0.039-0.683 0.137-1.195 0.985-1.075 0.728 0.104 0.904-0.336 1.12-0.904 0.273-0.951 1.135-1.635 2.157-1.635 0.14 0 0.276 0.013 0.409 0.037 1.063 0.151 1.898 1.049 1.954 2.152 0.038 0.329 0.060 0.705 0.060 1.085 0 0.096-0.001 0.191-0.004 0.287q0 3.986 0 7.986v0z"/>
<path d="M30.784 20.368c0 3.016 0 6.032 0 9.048 0.008 0.072 0.012 0.156 0.012 0.241 0 1.136-0.811 2.083-1.886 2.293-0.169 0.042-0.346 0.064-0.528 0.064-0.883 0-1.642-0.529-1.977-1.288-0.112-0.535-0.567-0.921-1.112-0.921-0.073 0-0.144 0.007-0.213 0.020-0.841 0.103-1.025-0.385-0.977-1.097 0.012-0.135 0.018-0.293 0.018-0.452s-0.007-0.317-0.020-0.472c-0.024-0.057-0.039-0.146-0.039-0.238 0-0.473 0.383-0.856 0.856-0.856 0.062 0 0.123 0.007 0.182 0.019 1.034-0.001 1.058-0.105 1.066-1.153q0-4.976 0-9.952c0-1.056 0-1.12-1.048-1.144-0.8 0-1.096-0.304-1.024-1.072 0-0.296 0-0.6 0-0.904 0-1.008 0-1.040 1.096-1.104 0.040 0.006 0.087 0.010 0.134 0.010 0.468 0 0.853-0.352 0.906-0.806 0.2-1.027 1.088-1.788 2.154-1.788 0.147 0 0.29 0.014 0.428 0.042 1.108 0.148 1.964 1.099 1.964 2.251 0 0.074-0.004 0.148-0.011 0.22 0.001 2.703 0.001 5.415 0.001 8.135q0 0.456 0 0.904v0z"/>
<path d="M7.904 20.464c0 3.016 0 6.032 0 9.048 0 1.6-0.968 2.544-2.4 2.472-0.005 0-0.011 0-0.017 0-1.060 0-1.942-0.764-2.125-1.771-0.162-0.957-0.474-1.493-1.49-1.509-0.259-0.022-0.5-0.193-0.622-0.435-0.122-0.501 0.302-0.501 0.662-0.557 1.352-0.232 1.368-0.248 1.376-1.6q0-5.504 0-11.008c0-1.296 0-1.312-1.4-1.6-0.384-0.080-0.68-0.152-0.68-0.616s0.368-0.536 0.728-0.536c0.058 0.010 0.125 0.016 0.194 0.016 0.667 0 1.208-0.541 1.208-1.208 0-0.053-0.003-0.106-0.010-0.158 0.046-1.199 1.035-2.159 2.247-2.159 0.054 0 0.108 0.002 0.161 0.006 1.191 0.049 2.143 1.032 2.143 2.238 0 0.057-0.002 0.113-0.006 0.169 0.048 3.081 0.032 6.145 0.032 9.209z"/>
<path d="M17.848 6.864c0-2.4 1.040-4.48 0-6.864 1.856 1.392 1.544 4.384 0 6.864z"/>
<path d="M10.28 6.784l0.456-6.288c1.208 1.192 1.128 3.736-0.456 6.288z"/>
<path d="M24.632 2.056c0.672 2.296-1.008 4.384 0 6.496-0.641-0.28-1.080-0.908-1.080-1.639 0-0.014 0-0.029 0-0.043 0.001-0.69 0.106-1.492 0.303-2.257 0.145-0.749 0.449-1.533 0.777-2.557z"/>
<path d="M25.496 6.344c0.136-1.024 0.32-2.048 0.392-3.072s0-2.064 0-2.992c1.312 1.2 1.312 3.568-0.392 6.064z"/>
<path d="M9.6 2.4c0.536 2.064-1.328 4-0.2 6.136-0.688-0.395-1.144-1.126-1.144-1.963 0-0.212 0.029-0.418 0.084-0.613 0.252-1.184 0.628-2.384 0.948-3.552h0.312z"/>
<path d="M17.256 8.92c-1.768-1.6-1.76-2.952 0-6.568 0.006 0.128 0.009 0.278 0.009 0.428 0 0.606-0.053 1.2-0.154 1.777-0.234 0.547-0.375 1.252-0.375 1.99 0 0.861 0.192 1.676 0.535 2.407z"/>
</symbol>

<symbol id="work-bath">

<path d="M8.8 25.12c-0.696-0.8-1.176-1.328-1.6-1.888 0.314 0.53-0.58-0.587-1.162-1.874-0.502-1.358-0.782-2.734-1.23-4.054 0.149 0.114-0.293-0.582-0.884-1.117l-0.724-0.803c0.026-0.069 0.516-0.331 1.058-0.46 2.086-0.069 4.182 0.179 6.198-0.149 3.448-0.56 6.816-1.6 10.264-2.176 1.943-0.271 4.188-0.426 6.469-0.426 0.142 0 0.283 0.001 0.425 0.002 0.184-0.002 0.75 0.293 1.187 0.72-0.128 0.167-0.68 0.485-1.299 0.627-0.522-0.031-1.106-0.051-1.695-0.051-3.304 0-6.461 0.634-9.354 1.787 3.635-0.86 7.115-1.572 10.899-1.092-0.992 2.592-1.912 5.104-2.936 7.576 0.426-0.496-0.309 0.633-1.274 1.515-0.31 0.381-0.558 0.805-0.806 1.189-0.014 0.142-0.226 0.462-0.516 0.685-0.022 0.004-0.043 0.005-0.064 0.005-0.303 0-0.572-0.148-0.738-0.375-0.338-0.931-1.018-0.851-1.818-0.851-2.6 0-5.192 0-7.792 0-0.8 0-1.648-0.184-2.024 0.888-0.104 0.139-0.325 0.277-0.578 0.319zM24.296 18.080c-1.88 3.792-5.328 4.384-9.016 4.576 1.264 0.088 2.504 0.096 3.752 0.088 3.544-0.008 4.624-0.936 5.248-4.656z"/>
</symbol>

<symbol id="work-heated_towel_rail">

<path d="M6.328 29.6c0 0.576 0 1.16 0 1.736 0.010 0.040 0.015 0.086 0.015 0.134 0 0.331-0.269 0.6-0.6 0.6-0.045 0-0.089-0.005-0.131-0.014-0.668-0.055-1.612 0.337-1.7-0.855-0.021-0.123-0.123-0.255-0.261-0.327-0.15 0.004-0.545-0.15-0.873-0.39-0.050-0.371-0.083-0.805-0.083-1.247 0-0.235 0.009-0.468 0.027-0.699 0.014-0.145 0.133-0.309 0.299-0.392 0.010-0.001 0.019-0.001 0.027-0.001 0.552 0 1-0.448 1-1 0-0 0-0 0-0 0.168-0.72 0.896-0.424 1.4-0.464s0.88 0 0.864 0.56c0 0.96 0.624 0.8 1.216 0.8h10.72c2.232 0 4.472 0 6.704 0 1.104 0 1.6-0.456 1.6-1.328 0.002-0.028 0.004-0.061 0.004-0.095 0-0.597-0.451-1.089-1.031-1.153-0.184-0.016-0.391-0.024-0.601-0.024s-0.418 0.009-0.623 0.026c-3.645-0.002-7.325-0.058-10.997-0.002-0.018 0-0.039 0-0.060 0-2.209 0-4-1.791-4-4 0-0.059 0.001-0.118 0.004-0.177-0-0.004-0.001-0.019-0.001-0.034 0-2.143 1.737-3.88 3.88-3.88 0.042 0 0.084 0.001 0.126 0.002 2.626-0.040 5.258-0 7.89-0 0.178 0.012 0.386 0.019 0.596 0.019s0.418-0.007 0.624-0.021c0.515-0.027 0.944-0.474 0.944-1.021 0-0.031-0.001-0.063-0.004-0.093 0.017-0.068 0.027-0.152 0.027-0.237 0-0.494-0.324-0.912-0.771-1.053-0.376-0.094-0.798-0.147-1.233-0.147-0.033 0-0.066 0-0.1 0.001q-3.995-0-8.035-0c-0.067 0.004-0.144 0.007-0.223 0.007-1.558 0-2.883-0.994-3.377-2.382-0.235-0.517-0.368-1.092-0.368-1.698 0-1.062 0.408-2.030 1.075-2.754 0.79-0.795 1.889-1.29 3.102-1.29 0.149 0 0.296 0.007 0.441 0.022l10.382-0.001c0.178 0.011 0.386 0.018 0.596 0.018s0.418-0.006 0.624-0.019c-0.010 0.003 0.011 0.003 0.032 0.003 0.579 0 1.048-0.469 1.048-1.048 0-0.057-0.005-0.113-0.013-0.168 0.010-0.047 0.015-0.108 0.015-0.171 0-0.605-0.491-1.096-1.096-1.096-0.016 0-0.033 0-0.049 0.001-0.176-0.010-0.384-0.015-0.594-0.015s-0.418 0.005-0.625 0.016l-15.603-0.001c-1.408 0-1.408 0-1.88-1.4-0.584 0.48-0.264 1.104-0.344 1.6s0.112 1.024-0.568 0.992-1.424 0.456-1.768-0.496c0-0.116-0.128-0.399-0.322-0.626-0.021 0.052-0.521-0.2-0.921-0.56-0.038-0.264-0.062-0.572-0.062-0.886s0.023-0.621 0.068-0.922c0.013-0.112 0.118-0.263 0.265-0.349 0.543-0.022 0.973-0.465 0.973-1.009 0-0.023-0.001-0.045-0.002-0.068 0.128-0.621 0.736-0.429 1.144-0.421s1.080-0.216 1.112 0.392c0.072 1.192 0.872 0.984 1.6 0.984h16.080c0.592 0 1.192 0 1.784 0 1.863 0.084 3.369 1.543 3.527 3.386 0.201 2.334-0.943 4.070-2.991 4.486-0.583 0.112-1.253 0.177-1.939 0.177-0.047 0-0.093-0-0.14-0.001-3.369 0-6.745 0-10.121 0-0.059-0.002-0.129-0.003-0.199-0.003-0.348 0-0.689 0.024-1.024 0.071-0.467 0.072-0.85 0.503-0.85 1.025 0 0.066 0.006 0.131 0.018 0.194-0.008 0.038-0.011 0.088-0.011 0.14 0 0.53 0.391 0.969 0.9 1.045 0.183 0.017 0.389 0.027 0.598 0.027s0.415-0.009 0.618-0.028c2.454 0.002 4.942 0.002 7.422 0.002 0.004 0 0.010-0 0.015-0 0.563 0 1.109 0.070 1.631 0.202 2.074 0.542 3.154 2.302 2.794 4.702-0.288 1.797-1.828 3.153-3.683 3.153-0.024 0-0.048-0-0.072-0.001-2.676 0-5.356 0-8.036 0-0.104-0.006-0.225-0.010-0.347-0.010-0.295 0-0.585 0.021-0.869 0.062-0.554 0.077-1.002 0.575-1.002 1.178 0 0.112 0.015 0.22 0.044 0.323-0.002-0.008-0.002-0.008-0.002-0.008 0 0.627 0.509 1.136 1.136 1.136 0.003 0 0.006 0 0.008-0 0.344 0 0.696 0 1.040 0 3.672 0 7.352 0 11.024 0 0.085-0.007 0.185-0.011 0.285-0.011 1.423 0 2.661 0.792 3.297 1.959 0.355 0.606 0.559 1.312 0.559 2.065 0 0.818-0.241 1.58-0.655 2.219-0.64 1.094-1.826 1.828-3.184 1.828-0.058 0-0.117-0.001-0.174-0.004-2.576 0-5.152 0-7.736 0h-8.968c-1.496 0-1.496 0-1.976-1.232z"/>
</symbol>

<symbol id="work-shower">

<path d="M16.888 5.736l2.176 2.176c-0.206 0.364 0.478-0.488 0.92-1.472l-1.584-1.64c0.361-0.256-0.669 0.242-1.524 0.945z"/>
<path d="M16.92 7.016c0.005 0.001 0.010 0.001 0.016 0.001 0.052 0 0.097-0.029 0.12-0.072l0.208-0.209c0.006-0.010 0.010-0.023 0.010-0.036s-0.004-0.026-0.010-0.036c0.026-0.020 0.043-0.052 0.043-0.088s-0.017-0.067-0.043-0.088c-0.022-0.024-0.053-0.039-0.088-0.039s-0.066 0.015-0.088 0.038c-0.010-0.006-0.023-0.010-0.036-0.010s-0.026 0.004-0.036 0.010l-0.216 0.216c-0.032 0.024-0.053 0.061-0.053 0.104s0.021 0.080 0.053 0.104c0.056 0.104 0.088 0.104 0.12 0.104z"/>
<path d="M16.232 7.704c0.005 0.001 0.010 0.001 0.016 0.001 0.052 0 0.097-0.029 0.12-0.072l0.208-0.209c0.030-0.028 0.049-0.068 0.049-0.112 0-0.084-0.068-0.153-0.153-0.153-0.040 0-0.077 0.016-0.104 0.041l-0.208 0.208c-0.032 0.024-0.053 0.061-0.053 0.104s0.021 0.080 0.053 0.104c-0.012 0.011-0.020 0.027-0.020 0.044 0 0.031 0.025 0.057 0.057 0.057 0.014 0 0.026-0.005 0.036-0.013z"/>
<path d="M15.888 7.88c-0.024-0.032-0.061-0.053-0.104-0.053s-0.081 0.021-0.104 0.053l-0.24 0.24c-0.033 0.024-0.053 0.061-0.053 0.104s0.021 0.081 0.053 0.104c0.030 0.042 0.080 0.070 0.136 0.072 0.008 0.002 0.016 0.003 0.025 0.003 0.050 0 0.093-0.030 0.111-0.074l0.208-0.209c0.014-0.028 0.023-0.061 0.023-0.096 0-0.055-0.021-0.106-0.055-0.144z"/>
<path d="M17.264 7.432c0.030 0.041 0.079 0.070 0.136 0.072 0.008 0.002 0.016 0.003 0.025 0.003 0.050 0 0.093-0.030 0.111-0.074l0.216-0.233c-0.004-0.011-0.006-0.023-0.006-0.036s0.002-0.025 0.007-0.037c0.026-0.020 0.042-0.052 0.042-0.087s-0.017-0.067-0.043-0.088c-0.022-0.024-0.053-0.039-0.088-0.039s-0.066 0.015-0.088 0.038c-0.010-0.006-0.023-0.010-0.036-0.010s-0.026 0.004-0.036 0.010l-0.24 0.248c-0.029 0.030-0.046 0.071-0.046 0.116s0.018 0.086 0.047 0.116z"/>
<path d="M16.8 7.672l-0.24 0.208c-0.032 0.024-0.053 0.061-0.053 0.104s0.021 0.081 0.053 0.104c0.030 0.042 0.080 0.070 0.136 0.072 0.008 0.002 0.016 0.003 0.025 0.003 0.050 0 0.093-0.030 0.111-0.074l0.208-0.209c0.032-0.024 0.053-0.061 0.053-0.104s-0.021-0.080-0.053-0.104c-0.031-0.031-0.073-0.051-0.12-0.051s-0.089 0.019-0.12 0.050z"/>
<path d="M16.336 8.368c-0.023-0.033-0.061-0.053-0.104-0.053s-0.081 0.021-0.104 0.053l-0.24 0.208c-0.033 0.024-0.053 0.061-0.053 0.104s0.021 0.081 0.053 0.104c0.030 0.042 0.080 0.070 0.136 0.072 0.010 0.003 0.021 0.004 0.032 0.004 0.044 0 0.083-0.024 0.104-0.060l0.208-0.209c0.020-0.026 0.032-0.060 0.032-0.096 0-0.052-0.025-0.098-0.064-0.128z"/>
<path d="M18.024 7.432c-0.010-0.006-0.023-0.010-0.036-0.010s-0.026 0.004-0.036 0.010l-0.208 0.208c-0.032 0.024-0.053 0.061-0.053 0.104s0.021 0.080 0.053 0.104c0.030 0.042 0.080 0.070 0.136 0.072 0.008 0.002 0.016 0.003 0.025 0.003 0.050 0 0.093-0.030 0.111-0.074l0.208-0.209c0.006-0.010 0.010-0.023 0.010-0.036s-0.004-0.026-0.010-0.036c0.026-0.020 0.043-0.052 0.043-0.088s-0.017-0.067-0.043-0.088c-0.018-0.006-0.039-0.009-0.061-0.009-0.053 0-0.101 0.018-0.14 0.049z"/>
<path d="M17.264 8.12l-0.208 0.24c-0.032 0.024-0.053 0.061-0.053 0.104s0.021 0.081 0.053 0.104c0.030 0.042 0.080 0.070 0.136 0.072 0.008 0.002 0.016 0.003 0.025 0.003 0.050 0 0.093-0.030 0.111-0.074l0.208-0.209c0.032-0.024 0.053-0.061 0.053-0.104s-0.021-0.081-0.053-0.104c-0.046-0.034-0.103-0.054-0.165-0.054-0.039 0-0.076 0.008-0.109 0.022z"/>
<path d="M16.576 8.8l-0.208 0.24c-0.032 0.024-0.053 0.061-0.053 0.104s0.021 0.081 0.053 0.104c0.030 0.042 0.080 0.070 0.136 0.072 0.008 0.002 0.016 0.003 0.025 0.003 0.050 0 0.093-0.030 0.111-0.074l0.208-0.209c0.032-0.024 0.053-0.061 0.053-0.104s-0.021-0.081-0.053-0.104c-0.034-0.048-0.089-0.078-0.151-0.078-0.047 0-0.089 0.017-0.122 0.046z"/>
<path d="M8.384 26.992v5.008h16.8v-32h-16.8v26.992zM9.008 0.592h15.584v26.4h-1.6v-22.912c0-0.172-0.14-0.312-0.312-0.312 0 0 0 0 0 0h-1.52c-0.008-0.001-0.017-0.002-0.027-0.002-0.077 0-0.145 0.042-0.181 0.105l-0.953 0.929c-0.141-0.074-0.307-0.117-0.484-0.117s-0.343 0.043-0.49 0.12l1.15 1.141c-0.073 0.231 0.056-0.103 0.132-0.457l1.044-0.991h1.048v22.56h-13.392v-26.4z"/>
<path d="M11.048 13.816h-0.312c-0.007-0-0.016-0-0.024-0-0.611 0-1.108 0.493-1.112 1.104v2.8c0.004 0.608 0.496 1.099 1.104 1.104h0.312c0.608-0.004 1.099-0.496 1.104-1.104v-2.832c-0.017-0.585-0.487-1.055-1.070-1.072zM11.528 17.72c-0.008 0.261-0.218 0.471-0.479 0.48l-0.313 0c-0.261-0.008-0.471-0.218-0.48-0.479l-0-2.833c0.008-0.261 0.218-0.471 0.479-0.48l0.313-0c0.261 0.008 0.471 0.218 0.48 0.479l0 2.833z"/>
</symbol>

<symbol id="work-plumber">

<path d="M6.688 17.472h-1.288c-0.038-0.003-0.083-0.005-0.128-0.005s-0.090 0.002-0.134 0.006l1.022 4.576h0.752c-0.555-0.603-0.896-1.412-0.896-2.3 0-0.001 0-0.003 0-0.004-0.001-0.038-0.002-0.083-0.002-0.128 0-0.802 0.252-1.546 0.682-2.155z"/>
<path d="M12.136 22.048v0l0.984-4.544c-0.038-0.005-0.083-0.007-0.128-0.007s-0.090 0.003-0.133 0.008l-1.283-0c0.421 0.624 0.672 1.392 0.672 2.22 0 0.018-0 0.037-0 0.055 0-0 0 0.003 0 0.006 0 0.882-0.331 1.688-0.875 2.298l0.763-0.003z"/>
<path d="M10.76 22.048c0.618-0.557 1.023-1.382 1.040-2.301 0-0.021 0.001-0.042 0.001-0.063 0-0.844-0.302-1.617-0.805-2.217-0.422-0.506-1.079-0.848-1.816-0.867-0.448 0.002-0.881 0.139-1.244 0.374 0.569-0.419-0.067-0.020-0.583 0.498-0.498 0.595-0.801 1.368-0.801 2.212 0 0.021 0 0.042 0.001 0.063 0.006 0.9 0.405 1.726 1.037 2.298l3.203 0.002z"/>
<path d="M23.624 22.776c-0.378 0.107-0.811 0.168-1.259 0.168-0.010 0-0.020-0-0.030-0-0.367-0-0.799-0.053-1.213-0.152l-0.946 7.672c0.011 0.114 0.107 0.202 0.223 0.202 0.012 0 0.023-0.001 0.034-0.003l3.959 0c0 0 0 0 0 0 0.124 0 0.224-0.1 0.224-0.224 0 0 0 0 0 0l-0.984-7.664z"/>
<path d="M27.2 18.488h-2v-1.016h0.28c0 0 0 0 0 0 0.124 0 0.224-0.1 0.224-0.224 0 0 0 0 0 0v0c0-0.124-0.1-0.224-0.224-0.224 0 0 0 0 0 0h-1.096c0 0 0 0 0 0-0.124 0-0.224 0.1-0.224 0.224 0 0 0 0 0 0v0c0 0.124 0.1 0.224 0.224 0.224 0 0 0 0 0 0h0.28v1.008h-1.344l-0.28-1.368c0.002-0.018 0.003-0.039 0.003-0.060 0-0.265-0.179-0.488-0.423-0.555l-0.004-0.801c-0.022-0.121-0.127-0.211-0.252-0.211s-0.23 0.090-0.252 0.209l-0 0.802c-0.304 0.041-0.536 0.299-0.536 0.611 0 0.002 0 0.004 0 0.006l-0.28 1.376h-1.688v-1.016h0.28c0 0 0 0 0 0 0.124 0 0.224-0.1 0.224-0.224 0 0 0 0 0 0v0c0-0.124-0.1-0.224-0.224-0.224 0 0 0 0 0 0h-1.040c0 0 0 0 0 0-0.124 0-0.224 0.1-0.224 0.224 0 0 0 0 0 0v0c0 0.124 0.1 0.224 0.224 0.224 0 0 0 0 0 0h0.256v1.008h-1.504c-0.014-0.003-0.029-0.004-0.045-0.004-0.141 0-0.256 0.115-0.256 0.256s0.115 0.256 0.256 0.256c0.016 0 0.032-0.001 0.047-0.004l0.702 0c0.127 1.479 1.188 2.751 2.613 3.193 0.452 0.149 0.942 0.231 1.451 0.231 0.003 0 0.005 0 0.008 0 0.485-0.001 1.022-0.095 1.523-0.266 1.354-0.402 2.404-1.659 2.516-3.178l0.841-0.012c0.002 0 0.005 0 0.008 0 0.137 0 0.248-0.111 0.248-0.248 0-0.003-0-0.006-0-0.009-0.032-0.122-0.141-0.211-0.271-0.211-0.014 0-0.028 0.001-0.042 0.003z"/>
<path d="M9.16 26.488c-0.574-0.001-1.154-0.103-1.693-0.291l-0.579 4.203c0.016 0.116 0.103 0.227 0.222 0.279l3.93 0.001c0.123-0.035 0.215-0.146 0.224-0.279l-0.616-4.129c-0.435 0.137-0.936 0.216-1.455 0.216-0.011 0-0.023-0-0.034-0z"/>
<path d="M13.512 23.056h0.368c0.121-0.022 0.211-0.127 0.211-0.252s-0.090-0.23-0.209-0.252l-9.154-0c-0.003-0-0.006-0-0.009-0-0.114 0-0.207 0.088-0.215 0.199l-0 0.057c0.001 0.043 0.022 0.099 0.057 0.145 0.008 0.081 0.076 0.143 0.159 0.143 0.003 0 0.006-0 0.009-0l0.336 0c0.173 0.951 0.953 1.915 2.001 2.391 0.135 0.073 0.183 0.113 0.271 0.153l0.224 0.088c0.474 0.176 1.025 0.279 1.6 0.28 0.51-0 1.016-0.082 1.491-0.234l0.189-0.078c-0.243 0.087 0.012 0.012 0.245-0.102 0.944-0.328 1.82-1.282 2.117-2.465 0.081-0.051 0.193-0.070 0.308-0.073z"/>
<path fill="#7caecf" d="M4.728 10.88h8.648v1.512h-8.648v-1.512z"/>
<path fill="#7caecf" d="M4.728 4.28h8.648v1.512h-8.648v-1.512z"/>
<path fill="#7caecf" d="M8.32 3.776l0.472-3.056h-2.016l0.28 3.056h1.264z"/>
<path d="M10.816 10.4v-2.048h-4.040v2.048h4.040zM7.784 9.36h2.024v0.504h-2.024v-0.504z"/>
<path fill="#7caecf" d="M6.24 7.312h5.080v0.504h-5.080v-0.504z"/>
<path d="M19.368 11.952c0 0.176 0 0.36 0 0.536-0.003 0.013-0.005 0.028-0.005 0.044 0 0.102 0.082 0.184 0.184 0.184 0.013 0 0.026-0.001 0.038-0.004 0.207 0 0.487 0.104 0.519-0.264 0.006-0.039 0.037-0.080 0.079-0.104 0.045 0.001 0.166-0.047 0.267-0.122 0.008-0.087 0.014-0.19 0.014-0.295s-0.006-0.207-0.017-0.308c-0.005-0.041-0.042-0.091-0.094-0.115-0.158-0.013-0.281-0.144-0.281-0.303 0-0 0-0.001 0-0.001-0.048-0.224-0.272-0.128-0.432-0.144s-0.272 0-0.264 0.168c0 0.296-0.192 0.256-0.376 0.256h-6.144c-0.029 0.008-0.063 0.012-0.097 0.012-0.216 0-0.392-0.175-0.392-0.392 0-0.010 0-0.020 0.001-0.030-0.001-0.009-0.002-0.020-0.002-0.032 0-0.184 0.141-0.335 0.32-0.351 0.056-0.005 0.121-0.008 0.185-0.008s0.129 0.003 0.192 0.008c1.12-0.001 3.048-0.001 4.176-0.001 0.008 0 0.016 0 0.025 0 0.676 0 1.224-0.548 1.224-1.224 0-0.020-0-0.039-0.001-0.059 0-0.002 0-0.008 0-0.014 0-0.658-0.534-1.192-1.192-1.192-0.011 0-0.023 0-0.034 0-0.798-0-2.398-0-3.198-0-0.055 0.004-0.119 0.006-0.184 0.006s-0.129-0.002-0.193-0.006c-0.157-0.007-0.289-0.144-0.289-0.311 0-0.011 0.001-0.023 0.002-0.034-0.009-0.027-0.014-0.060-0.014-0.094 0-0.142 0.088-0.263 0.211-0.312 0.119-0.031 0.253-0.049 0.392-0.049 0.007 0 0.013 0 0.020 0h3.271c0.027 0.002 0.058 0.004 0.089 0.004 0.472 0 0.874-0.298 1.028-0.716 0.071-0.158 0.112-0.333 0.112-0.518 0-0.332-0.13-0.634-0.342-0.858-0.243-0.245-0.581-0.397-0.954-0.397-0.044 0-0.088 0.002-0.131 0.006l-3.995-0c-0.055 0.003-0.119 0.005-0.184 0.005s-0.129-0.002-0.193-0.006c0.006 0.001 0.002 0.001-0.002 0.001-0.177 0-0.32-0.143-0.32-0.32 0-0.014 0.001-0.028 0.003-0.042-0.003-0.015-0.005-0.035-0.005-0.055 0-0.186 0.15-0.336 0.336-0.336 0.004 0 0.009 0 0.013 0 0.054-0.003 0.119-0.005 0.183-0.005s0.129 0.002 0.193 0.005l5.591-0c0.432 0 0.432 0 0.576-0.432 0.075 0.098 0.12 0.223 0.12 0.358 0 0.049-0.006 0.097-0.017 0.142 0.001 0.124 0.001 0.308 0.177 0.3s0.44 0.136 0.552-0.16c-0-0.036 0.038-0.123 0.097-0.193-0.013 0.025 0.138-0.063 0.255-0.183 0.013-0.082 0.020-0.176 0.020-0.272s-0.007-0.19-0.021-0.282c-0.004-0.043-0.042-0.093-0.094-0.117-0.17-0.005-0.305-0.143-0.305-0.312 0-0.003 0-0.006 0-0.009 0-0.192-0.216-0.128-0.344-0.128s-0.328-0.064-0.344 0.12c0 0.368-0.272 0.304-0.488 0.304h-5.728c-0.184 0-0.368 0-0.552 0-0.574 0.022-1.039 0.469-1.088 1.036-0.013 0.070-0.020 0.145-0.020 0.222 0 0.568 0.399 1.042 0.932 1.157 0.19 0.037 0.399 0.058 0.613 0.058 0.010 0 0.019-0 0.029-0h3.911c0.055-0.005 0.119-0.008 0.184-0.008s0.129 0.003 0.192 0.008c0.148 0.022 0.267 0.155 0.267 0.316 0 0.015-0.001 0.030-0.003 0.045 0.001 0.009 0.002 0.021 0.002 0.034 0 0.165-0.122 0.301-0.28 0.325-0.057 0.005-0.121 0.008-0.186 0.008s-0.129-0.003-0.192-0.009l-3.064 0.001c-0.006-0-0.014-0-0.021-0-0.169 0-0.332 0.020-0.489 0.059-0.511 0.129-0.894 0.597-0.894 1.155 0 0.103 0.013 0.203 0.038 0.299 0.086 0.543 0.559 0.96 1.129 0.96 0.008 0 0.015-0 0.023-0 0.799 0 2.447 0 3.271 0 0.055-0.006 0.119-0.009 0.184-0.009s0.129 0.003 0.192 0.010c0.173 0.025 0.31 0.178 0.31 0.364 0 0.024-0.002 0.047-0.007 0.070-0.004 0.189-0.16 0.342-0.352 0.342-0 0-0 0-0 0h-4.488c-0.024-0.002-0.051-0.003-0.079-0.003-0.438 0-0.819 0.245-1.014 0.605-0.118 0.192-0.187 0.417-0.187 0.658s0.068 0.466 0.187 0.657c0.197 0.337 0.563 0.564 0.981 0.564 0.017 0 0.033-0 0.050-0.001l5.918 0c0.456 0 0.456 0 0.608-0.376h0.104z"/>
</symbol>

<symbol id="work-water_tap">

<g>
	<g>
		<path d="M12.76,35.094L6.206,47.805c-1.311,4.448,2.946,7.977,6.581,7.977s8.102-3.465,6.581-7.977L12.76,35.094z"/>
		<path d="M49.254,20.05c-0.254-0.445-0.535-0.881-0.863-1.299v-0.01c-0.04-0.046-0.083-0.09-0.124-0.136    c-2.04-2.263-4.837-4.012-6.594-4.98c-6.548-3.366-14.9-4.951-18.053-4.951c-8.504,0-15.423,6.73-15.423,15.002    c0,0.168,0.033,0.327,0.049,0.49h9.901c0.016-0.164,0.049-0.322,0.049-0.49c0-2.758,2.433-5.002,5.423-5.002    c4.79,0,14.893,3.643,16.771,5.975v24.518c0,2.763,2.237,5,5,5s5-2.237,5-5V24.14C50.391,22.664,49.972,21.304,49.254,20.05z"/>
		<polygon points="5.391,31.167 20.391,31.167 20.391,29.167 12.391,29.167 12.391,28.167 20.391,28.167 20.391,25.167     5.391,25.167   "/>
		<path d="M42.518,7.54l0.936,0.328c-0.041,0.139-0.062,0.284-0.062,0.432v5.147c1.533,0.923,3.407,2.218,5,3.814V9.599V8.3V8.038    l-0.027-0.012c-0.135-1.046-1.015-1.859-2.088-1.859h-0.349c-0.384,0-0.791,0.114-1.168,0.299l-1.114-0.482L29.823,0    c0,0-1.68,0.993-1.257,2.648L42.518,7.54z"/>
	</g>
</g>
<g>
</g>
<g>
</g>
<g>
</g>
<g>
</g>
<g>
</g>
<g>
</g>
<g>
</g>
<g>
</g>
<g>
</g>
<g>
</g>
<g>
</g>
<g>
</g>
<g>
</g>
<g>
</g>
<g>
</g>
</symbol>

<symbol id="work-water_pape">

<path class="wheel" d="M32 23.68h-12.168c-0.173-0.924-0.974-1.615-1.936-1.615s-1.763 0.69-1.934 1.602l-5.602 0.012c-0.002 0-0.004 0-0.007 0-1.904 0-3.549-1.108-4.325-2.715 0.702-0.334 1.194-1.031 1.194-1.843 0-0.881-0.579-1.626-1.376-1.878 0.665-1.884 2.434-3.204 4.512-3.204 0.001 0 0.002 0 0.003 0h0.352v1.36c0 0.002-0 0.005-0 0.008 0 0.937 0.753 1.698 1.687 1.712h9.313c0.945 0 1.712-0.767 1.712-1.712 0 0 0 0 0 0v-1.36h8.576v-3.928h-8.576v-1.36c0-0.946-0.767-1.712-1.712-1.712 0 0 0 0 0 0h-2.664v-1.32h3.48c1.105 0 2-0.895 2-2s-0.895-2-2-2h-3.84c-0.367-0.513-0.961-0.844-1.632-0.844s-1.265 0.331-1.628 0.838l-3.852 0.006c-1.105 0-2 0.895-2 2s0.895 2 2 2h3.48v1.32h-2.656c0 0 0 0 0 0-0.946 0-1.712 0.766-1.712 1.712 0 0 0 0 0 0v1.36h-0.36c-4.217 0.021-7.735 3.012-8.566 6.991-0.995 0.175-1.751 1.005-1.751 2.012 0 1.049 0.821 1.907 1.856 1.965 1.035 3.774 4.43 6.51 8.467 6.528h5.602c0.164 0.935 0.97 1.637 1.94 1.637s1.776-0.702 1.938-1.625l12.186-0.012v-3.936z"/>
</symbol>

<symbol id="work-toilet_bidet">

<path d="M20.992 32.072h-10.032c0.176-1.312 0.344-2.576 0.52-3.832 0.16-1.128 0.312-2.248 0.488-3.368 0.014-0.060 0.022-0.129 0.022-0.2 0-0.332-0.177-0.622-0.442-0.782-1.965-1.448-3.223-3.749-3.223-6.343 0-0.19 0.007-0.378 0.020-0.564l0.719-0.031c0.040-0.76-0.208-1.704 0.968-1.704-0.32-2.568-0.64-5.064-0.952-7.56-0.112-0.872-0.176-1.752-0.336-2.624 0.069 0.049-0.153-0.457-0.478-0.88l-0.266 0.080c0.014-0.239 0.023-0.519 0.023-0.8s-0.008-0.561-0.024-0.838c-0.031-0.045-0.049-0.142-0.049-0.243 0-0.442 0.358-0.8 0.8-0.8 0.018 0 0.036 0.001 0.054 0.002q2.398-0.328 4.798-0.704c0.268-0.005 0.66-0.136 0.993-0.35 0.384-0.288 0.88-0.464 1.416-0.464 0.487 0 0.941 0.145 1.319 0.395 0.149 0.122 0.676 0.33 1.244 0.408 1.619 0.274 3.171 0.514 4.747 0.762 0.007-0 0.015-0 0.023-0 0.376 0 0.68 0.304 0.68 0.68 0 0.063-0.009 0.123-0.024 0.181-0.039 0.387 0.001 0.795 0.001 1.179s0.112 0.712-0.44 0.8c-0.139 0.147-0.233 0.358-0.24 0.591-0.304 2.401-0.584 4.737-0.888 7.105-0.128 1.008-0.28 2.008-0.432 3.080 1.072 0 1.136 0.8 0.944 1.728l0.752 0.080c0.012 0.188 0.019 0.407 0.019 0.628s-0.007 0.44-0.020 0.658c-0.104 2.092-1.296 4.168-3.082 5.483-0.341 0.217-0.551 0.57-0.551 0.971 0 0.118 0.018 0.232 0.052 0.34 0.318 2.12 0.614 4.256 0.91 6.392 0 0.004 0 0.009 0 0.014 0 0.187-0.012 0.371-0.034 0.551zM10.016 4.432c-0.008 0.12-0.012 0.259-0.012 0.4s0.004 0.28 0.013 0.419c0.383 2.749 0.759 5.525 1.039 8.349 0.12 1.144 0.344 1.368 1.6 1.232 1.051-0.15 2.266-0.235 3.5-0.235s2.449 0.086 3.637 0.251c-0.038 0.024 0.076 0.046 0.196 0.046 0.513 0 0.928-0.415 0.928-0.928 0-0.036-0.002-0.071-0.006-0.106 0.256-2.084 0.536-4.18 0.8-6.268 0.128-1.032 0.24-2.064 0.36-3.152h-12.056zM9.704 18.296c0.128 3.384 3.344 6 6.976 5.736 2.872-0.208 5.808-3.2 5.552-5.736zM13.24 24.848l-0.8 5.968h7.2l-0.8-5.96c-0.829 0.318-1.788 0.502-2.789 0.502-1.010 0-1.976-0.187-2.866-0.529zM22.656 3.064c-2.032-1.352-12-1.176-13.384 0h13.384zM21.8 16.736c-1.992-1.2-9.944-1.080-11.504 0h11.504z"/>
</symbol>

<symbol id="work-boiler">
<g>
	<g>
		<g id="group-18svg">
			<path id="path-1_8_" d="M51.907,46.5c0,3.038-2.463,5.5-5.5,5.5h-30c-3.037,0-5.5-2.462-5.5-5.5v-41c0-3.038,2.463-5.5,5.5-5.5     h30c3.037,0,5.5,2.462,5.5,5.5V46.5z M48.907,5.5c0-1.381-1.119-2.5-2.5-2.5h-30c-1.381,0-2.5,1.119-2.5,2.5v41     c0,1.381,1.119,2.5,2.5,2.5h30c1.381,0,2.5-1.119,2.5-2.5V5.5z"/>
			<path id="path-2_8_" d="M43.907,54c0,0.552-0.447,1-1,1h-6c-0.553,0-1-0.448-1-1v-2c0-0.552,0.447-1,1-1h6c0.553,0,1,0.448,1,1     V54z"/>
			<path id="path-3_8_" d="M47.073,63.904c-2.55,0-4.582-0.681-6.067-2.04c-2.936-2.685-2.435-6.907-2.412-7.086     c0.104-0.822,0.86-1.408,1.677-1.298c0.821,0.105,1.401,0.852,1.3,1.671c-0.007,0.054-0.309,2.898,1.474,4.512     c1.433,1.298,4.029,1.581,7.508,0.818c9.408-2.063,10.873-1.129,11.561,0.006c0.51,0.839,0.26,1.789-0.215,2.358     c-0.531,0.636-1.475,0.723-2.112,0.193c-0.249-0.208-0.414-0.479-0.491-0.771c-0.895-0.056-3.085,0.045-8.101,1.145     C49.7,63.74,48.325,63.904,47.073,63.904z"/>
			<path id="path-4_8_" d="M27.907,52c0-0.552-0.447-1-1-1h-6c-0.552,0-1,0.448-1,1v2c0,0.552,0.448,1,1,1h6c0.553,0,1-0.448,1-1V52     z"/>
			<path id="path-5_8_" d="M16.831,63.904c-1.251,0-2.626-0.164-4.122-0.492c-5.011-1.1-7.197-1.204-8.1-1.145     c-0.077,0.292-0.241,0.563-0.491,0.771c-0.636,0.529-1.581,0.444-2.112-0.192c-0.475-0.57-0.725-1.52-0.215-2.359     c0.69-1.135,2.148-2.07,11.561-0.006c3.478,0.764,6.075,0.481,7.508-0.818c1.791-1.621,1.478-4.483,1.474-4.512     c-0.096-0.82,0.488-1.568,1.308-1.668c0.812-0.105,1.565,0.477,1.67,1.295c0.022,0.179,0.523,4.401-2.413,7.086     C21.414,63.222,19.383,63.904,16.831,63.904z"/>
			<path id="path-6_7_" d="M32.181,47.332c-3.957,0-7.177-3.219-7.177-7.177c0-3.957,3.22-7.177,7.177-7.177s7.176,3.22,7.176,7.177     C39.356,44.113,36.138,47.332,32.181,47.332z M32.181,35.978c-2.303,0-4.177,1.874-4.177,4.177c0,2.303,1.874,4.177,4.177,4.177     c2.302,0,4.176-1.874,4.176-4.177C36.356,37.852,34.482,35.978,32.181,35.978z"/>
			<path id="path-7_7_" d="M32.407,38.5c-0.828,0-1.5-0.671-1.5-1.5v-3c0-0.829,0.672-1.5,1.5-1.5s1.5,0.671,1.5,1.5v3     C33.907,37.829,33.235,38.5,32.407,38.5z"/>
			<path id="path-8_6_" d="M35.48,11h-8c-0.828,0-1.5-0.671-1.5-1.5S26.652,8,27.48,8h8c0.829,0,1.5,0.671,1.5,1.5     S36.309,11,35.48,11z"/>
		</g>
	</g>
	<g>
	</g>
	<g>
	</g>
	<g>
	</g>
	<g>
	</g>
	<g>
	</g>
	<g>
	</g>
	<g>
	</g>
	<g>
	</g>
	<g>
	</g>
	<g>
	</g>
	<g>
	</g>
	<g>
	</g>
	<g>
	</g>
	<g>
	</g>
	<g>
	</g>
</g>
<g>
</g>
<g>
</g>
<g>
</g>
<g>
</g>
<g>
</g>
<g>
</g>
<g>
</g>
<g>
</g>
<g>
</g>
<g>
</g>
<g>
</g>
<g>
</g>
<g>
</g>
<g>
</g>
<g>
</g>
</symbol>


<symbol id="work-sewerage">

<path d="M16.6 8.48v-1.696l-0.928-0.176v-3.32h13.128v3.32l-0.952 0.152v18.992l0.96 0.16v3.336h-13.152v-3.28c0.004-0.022 0.055-0.077 0.118-0.111 0.234-0.001 0.458-0.001 0.802-0.001l0.088-0.688-10.712-10.768-0.56 0.56-2.192-1.88 9.656-9.664 2.024 2.064-0.608 0.68zM20.128 25.44c0.003-0.054 0.004-0.116 0.004-0.179 0-1.251-0.558-2.372-1.438-3.128q-4.806-4.869-9.702-9.701c-0.056-0.056-0.16-0.072 0 0l-0.992 0.736 10.768 10.768v1.504h1.36zM18.112 4v1.904h1.6v-1.512c-0.267-0.3-0.653-0.487-1.083-0.487-0.186 0-0.363 0.035-0.526 0.099zM19.712 28.2v-1.584h-1.6v2.016zM6.656 12.752c0.32-0.52 0.944-0.688 0.976-1.392l-1.152-0.96-1.104 1.232z"/>
</symbol>


<symbol id="logo">

<path fill="#008dff" d="M13.515 7.264c0.075-0.901-0.213-1.28-0.592-1.44 0-0.149 0.059-0.752 0.059-0.923 0-2.043-1.904-4-3.669-4.427 0.003-0.013 0.004-0.028 0.004-0.043s-0.001-0.030-0.004-0.044c-0.091-0.233-0.315-0.396-0.578-0.396-0.035 0-0.070 0.003-0.103 0.009-0.032-0.008-0.074-0.012-0.116-0.012-0.263 0-0.488 0.165-0.578 0.397-0.005 0.019-0.006 0.035-0.006 0.052s0.002 0.034 0.005 0.050c-1.632 0.452-3.67 2.388-3.67 4.414 0 0.123 0 0.245 0 0.368s0 0.373 0 0.597c-0.347 0.171-0.603 0.533-0.533 1.413s0.533 1.317 1.003 1.44c0.704 1.781 2.133 3.237 3.861 3.237s3.152-1.445 3.856-3.2c0.512-0.144 0.987-0.56 1.061-1.493zM8.597 11.072c-1.925 0-3.472-2.619-3.472-4.8 0-0.144 0-0.277 0-0.411l0.56 0.533c0.123 0.121 0.292 0.195 0.478 0.195 0.161 0 0.308-0.055 0.425-0.148 0.528-0.352 1.179-0.563 1.879-0.563 0.055 0 0.11 0.001 0.165 0.004 0.027-0.002 0.068-0.002 0.109-0.002 0.719 0 1.387 0.222 1.937 0.601 0.104 0.084 0.251 0.14 0.412 0.14 0.186 0 0.355-0.074 0.478-0.195l0.491-0.485c0 0.112 0 0.224 0 0.341 0.011 2.171-1.541 4.789-3.461 4.789z"/>
<path fill="#404040" d="M5.205 32c0-2.997 0-5.995 0-8.992 0.003-0.020 0.005-0.043 0.005-0.067 0-0.198-0.134-0.364-0.317-0.412-0.289 0.059-1.627-0.637-2.673-1.635-0.768-0.737-1.247-1.776-1.247-2.927 0-0.224 0.018-0.443 0.053-0.656-0.016-0.687 0.308-2.167 0.869-3.525 0.322-1.011 1.423-2.1 2.812-2.544 0.032 0.14 0.032 0.274 0.032 0.407 0 2.037 0 4.075 0 6.112-0 0.010-0.001 0.022-0.001 0.034 0 0.261 0.116 0.495 0.298 0.653 0.582 0.534 1.148 1.11 1.734 1.654 0.109 0.098 0.269 0.168 0.446 0.176 0.791 0 1.602-0.037 2.37 0 0.060 0.008 0.13 0.013 0.2 0.013 0.484 0 0.918-0.215 1.211-0.555 0.418-0.455 0.871-0.877 1.319-1.298 0.161-0.138 0.262-0.341 0.262-0.568 0-0.010-0-0.021-0.001-0.031 0-2.036 0-4.073 0-6.111 0-0.133 0-0.272 0-0.533-1.706-0.797-0.089-0.167 1.338 0.735 0.741 0.433 1.573 1.558 1.871 2.885 0.083 0.071 0.402 1.436 0.535 2.855 0.122 1.829-0.768 3.114-2.23 4.021 1.534-0.923 0.092 0.082-1.514 0.778-0.293 0.096-0.441 0.285-0.441 0.509 0 0.020 0.001 0.040 0.004 0.060-0 2.984-0 5.971-0 8.958h-6.933z"/>
</symbol>

<symbol id="help-payment">

<path d="M27.775 16.439c0.17-0.207 0.273-0.475 0.273-0.767 0-0.104-0.013-0.205-0.038-0.302l-3.003-11.405c-0.144-0.536-0.626-0.923-1.198-0.923-0.111 0-0.219 0.015-0.322 0.042l-19.233 5.077c-0.535 0.147-0.922 0.629-0.922 1.202 0 0.11 0.014 0.216 0.041 0.318l3.008 11.405c0.147 0.535 0.629 0.922 1.202 0.922 0.11 0 0.216-0.014 0.318-0.041l6.794-1.817v3.822c0 2.139 3.556 3.253 7.046 3.253s7.046-1.12 7.046-3.253v-5.772c-0.021-0.716-0.416-1.372-1.005-1.755zM25.6 12.504l0.314 1.185-3.822 1.007-0.314-1.185zM23.378 4.99l0.593 2.264-5.967 1.576-0.593-2.264zM20.699 13.796l0.308 1.185c-1.202 0.005-2.644 0.273-3.983 0.757l-0.148-0.923zM7.384 18.584l-0.314-1.185 3.822-1.013 0.314 1.185zM11.97 16.101l3.822-1.007 0.29 1.090-0.267 0.178-3.556 0.93zM27.508 23.899c0 1.244-2.584 2.258-5.772 2.258s-5.736-1.013-5.736-2.258v-1.381c-0.003-0.024-0.004-0.052-0.004-0.080s0.001-0.056 0.004-0.083c0.183 1.189 2.666 2.125 5.736 2.125s5.553-0.936 5.736-2.121c-0.007-0.030 0.020 0.048 0.035 0.131l0.001 1.409zM27.508 21.138c0 1.244-2.584 2.252-5.772 2.252s-5.736-1.007-5.736-2.252v-1.404c-0.002-0.020-0.003-0.044-0.003-0.068s0.001-0.048 0.003-0.071c0.183 1.188 2.666 2.125 5.736 2.125s5.553-0.936 5.736-2.121c-0.008-0.034 0.020 0.047 0.035 0.131l0.001 1.41zM21.736 20.45c-3.182 0-5.766-1.007-5.766-2.252s2.584-2.252 5.766-2.252 5.772 1.007 5.772 2.252-2.584 2.252-5.772 2.252z"/>
</symbol>

<symbol id="help-working">

<path d="M28.764 5.292c-0.083-0.249-0.255-0.267-0.391-0.041l-0.984 1.677c-0.145 0.227-0.407 0.39-0.709 0.409l-1.366 0c-0.286-0.010-0.551-0.169-0.709-0.406l-0.707-1.224c-0.061-0.119-0.097-0.26-0.097-0.409s0.036-0.29 0.1-0.414l0.987-1.672c0.13-0.249 0-0.373-0.225-0.32 0 0-1.92 0.367-2.643 1.612-0.22 0.449-0.348 0.977-0.348 1.534 0 0.338 0.047 0.664 0.135 0.974 0.009 0.035 0.017 0.104 0.017 0.175 0 0.226-0.085 0.433-0.225 0.589l-12.663 12.657c-0.192 0.171-0.446 0.276-0.725 0.276-0.029 0-0.057-0.001-0.085-0.003s-2.746-0.355-3.659 1.334c-0.681 1.262 0 3.099 0 3.099 0.089 0.243 0.267 0.255 0.391 0l0.924-1.713c0.133-0.229 0.393-0.404 0.696-0.432l1.224-0.012c0.022-0.002 0.049-0.003 0.075-0.003 0.217 0 0.419 0.065 0.587 0.177-0.38-0.441 0.084 0.023 0.424 0.572l0.52 0.836c0.061 0.119 0.097 0.26 0.097 0.409s-0.036 0.29-0.1 0.414l-0.892 1.702c-0.124 0.231 0 0.367 0.237 0.314 0 0 1.902-0.439 2.59-1.701 0.195-0.426 0.308-0.923 0.308-1.448 0-0.315-0.041-0.621-0.118-0.912-0.008-0.034-0.016-0.102-0.016-0.171 0-0.23 0.087-0.44 0.23-0.599l12.651-12.663c0.191-0.171 0.445-0.276 0.723-0.276 0.029 0 0.058 0.001 0.087 0.003s2.61 0.355 3.552-1.251c0.723-1.239 0.107-3.093 0.107-3.093z"/>
<path d="M27.769 25.108q-2.406-2.264-4.818-4.521c-1.641-1.541-3.295-3.076-4.924-4.634-1.399-1.339-2.773-2.702-4.148-4.059-0.154-0.154-0.302-0.314-0.456-0.48-0.206 0.133 0.086-0.023 0.328-0.233-0.047 0.082 0.090-0.095 0.178-0.297 0.051-0.098 0.080-0.192 0.116-0.281 0.059 0.344 0.089 0.367 0.516 0.444 0 0.338 0 0.35 0.444 0.397 0 0.35 0 0.35 0.456 0.415 0 0.261 0.065 0.415 0.361 0.367 0.039 0.004 0.076 0.032 0.095 0.070-0.035 0.339 0.19 0.368 0.433 0.356 0 0.332 0.041 0.344 0.344 0.403 0.001-0.009 0.074 0.035 0.13 0.095-0.007 0.017 0.126 0.135 0.285 0.205 0.079 0.018 0.163 0.028 0.25 0.028 0.382 0 0.722-0.181 0.939-0.461 0.251-0.346 0.535-0.738 0.156-1.188-0.007-0.021-0.011-0.046-0.011-0.071s0.004-0.050 0.012-0.073c-0-0.229-0.030-0.283-0.273-0.235-0.124 0-0.213 0-0.19-0.136 0.041-0.29 0-0.308-0.296-0.279-0.061-0.007-0.117-0.051-0.142-0.111-0-0.363-0.036-0.38-0.386-0.286-0.089-0.468-0.089-0.468-0.439-0.468-0.001-0.006-0.002-0.013-0.002-0.021s0.001-0.014 0.002-0.021c0.047-0.331-0-0.361-0.314-0.325-0.142 0-0.154-0.047-0.124-0.172 0.053-0.213-0.053-0.302-0.273-0.255-0.065-0-0.126-0.018-0.18-0.048 0.055-0.224-0.135-0.491 0.132-0.692 0.078-0.069 0.128-0.169 0.128-0.281 0-0.097-0.037-0.186-0.098-0.252-0.308-0.444-0.592-0.906-0.912-1.345-0.23-0.595-1.421-1.693-2.872-2.284-0.177-0.080-0.333-0.118-0.498-0.118-0.242 0-0.465 0.081-0.644 0.216-0.045 0.049-0.113 0.081-0.188 0.081-0.091 0-0.171-0.047-0.218-0.117-0.433-0.398-0.866-0.795-1.316-1.186-0.378-0.351-0.886-0.566-1.445-0.566-0.069 0-0.138 0.003-0.205 0.010-0.744 0.079-1.499 0.597-1.922 1.331-0.387 0.498-0.801 1.513-0.923 2.617-0.030 0.157-0.047 0.305-0.047 0.457 0 0.314 0.069 0.613 0.192 0.881 0.131-0.149 0.273-0.28 0.415-0.41 0.262 0.265-0.008 0.030-0.215-0.254-0.014-0.034-0.020-0.066-0.020-0.099 0-0.068 0.024-0.131 0.063-0.181 0.717-0.722 1.44-1.433 2.163-2.145 0.065-0.114 0.186-0.19 0.325-0.19 0.058 0 0.114 0.013 0.163 0.037-0.861-0.592 0.159 0.001 0.998 0.785 0.070 0.044 0.118 0.127 0.118 0.22 0 0.069-0.026 0.132-0.069 0.179l-1.831 2.287c-0.225 0.279-0.231 0.279-0.533 0.071l-0.059-0.041c-0.13 0.136-0.255 0.279-0.391 0.415l-0.036 0.053c0.062 0.101 0.348 0.296 0.676 0.388 0.058 0.020 0.112 0.030 0.168 0.030s0.11-0.010 0.16-0.028c0.080-0.047 0.181-0.075 0.288-0.075 0.147 0 0.282 0.054 0.385 0.142-0.977-0.696-0.074-0.147 0.672 0.565 0.323 0.317 0.62 0.661 0.94 0.987 0.557 0.593 0.563 0.593 0.213 1.274v0c-0.046 0.064-0.074 0.144-0.074 0.231 0 0.131 0.064 0.247 0.162 0.32q0.44 0.38 0.866 0.777c0.45 0.421 0.516 0.421 0.93-0.065 0.231-0.273 0.231-0.273 0.486 0l5.298 5.215 3.064 2.999 2.88 2.827c0.776 0.764 1.547 1.541 2.341 2.299-0.276-0.204 0.312 0.396 1.021 0.812 0.192 0.112 0.397 0.172 0.617 0.172 0.655 0 1.185-0.531 1.185-1.185 0-0.025-0.001-0.050-0.002-0.075-0.012-0.463-0.241-0.908-0.596-1.209z"/>
</symbol>

<symbol id="help-fast">

<path d="M15.887 8.16c0.249 0.053 0.536 0.084 0.829 0.084 2.291 0 4.148-1.857 4.148-4.148s-1.857-4.148-4.148-4.148c-2.291 0-4.148 1.857-4.148 4.148 0 0.293 0.030 0.58 0.088 0.856 0.281 1.548 1.564 2.86 3.204 3.204zM30.815 18.471c-0.178-0.693-0.391-1.333-0.593-1.997l-0.776-2.483-0.516-1.659c0.466-0.269 0.774-0.765 0.774-1.333 0-0.090-0.008-0.178-0.023-0.264-0.151-0.719-0.787-1.257-1.549-1.257-0.040 0-0.080 0.002-0.12 0.005l-0.813-2.637c-0.071-0.219-0.071-0.219 0.154-0.273 0.391-0.095 0.415-0.13 0.308-0.51q-0.107-0.356-0.196-0.729c-0.019-0.123-0.125-0.216-0.252-0.216-0.014 0-0.027 0.001-0.040 0.003l0.001-0c-0.504 0-0.504 0-0.664-0.492-0.089-0.279-0.201-0.545-0.284-0.824 0.113 0.34-0.049-0.070-0.148-0.503-0.013-0.057-0.017-0.088-0.017-0.119 0-0.131 0.067-0.246 0.169-0.313 0.042-0.029 0.086-0.095 0.102-0.171 0.020-0.078 0.032-0.164 0.032-0.254s-0.011-0.176-0.033-0.259l-0.046 0.007-0.35 0.101v0.077c0 0.231 0 0.237-0.196 0.284l-1.843 0.391c-0.007 0.001-0.015 0.002-0.024 0.002-0.095 0-0.172-0.077-0.172-0.172 0-0.003 0-0.005 0-0.008-0.010 0.031-0.104-0.363-0.146-0.773 0.001-0.144 0.1-0.245 0.223-0.251l1.849-0.593c0.010-0.002 0.022-0.003 0.033-0.003 0.052 0 0.099 0.022 0.132 0.056-0.067-0.139 0.022 0.019 0.080 0.191l0.353-0.114c-0.087-0.155-0.36-0.366-0.684-0.46-0.426-0.167-0.909-0.263-1.415-0.263-0.131 0-0.261 0.006-0.389 0.019-0.51 0.017-1.003 0.301-1.308 0.728-0.136 0.211-0.215 0.463-0.215 0.732 0 0.131 0.019 0.259 0.054 0.379 0.075 0.358 0.181 0.713 0.276 1.075 0.010 0.021 0.016 0.045 0.016 0.071 0 0.070-0.043 0.129-0.104 0.154-0.222 0.106-0.378 0.331-0.386 0.592-0.013 0.122-0.020 0.263-0.020 0.405 0 0.697 0.172 1.353 0.475 1.929 0.143 0.285 0.327 0.57 0.487 0.89 0.034 0.092 0.121 0.157 0.223 0.157 0.040 0 0.077-0.010 0.11-0.027 0.022-0.003 0.050-0.005 0.077-0.005 0.136 0 0.261 0.052 0.354 0.137 0.004 0.016 0.007 0.036 0.007 0.056s-0.003 0.039-0.007 0.058c-0.089 0.111-0.071 0.194 0.066 0.229s0.107 0.047 0.059 0.119c-0.119 0.178-0.107 0.201 0.095 0.273-0.107 0.196-0.107 0.196 0.119 0.385-0.154 0.172-0.154 0.184 0.047 0.302 0.009 0.016 0.014 0.036 0.014 0.056s-0.005 0.040-0.015 0.057c-0.106 0.165-0.1 0.189 0.071 0.248s0.071 0.083 0 0.148-0.083 0.172 0.059 0.225c0.026 0.002 0.059 0.020 0.083 0.047 0.094 0.184 0.282 0.308 0.498 0.308 0.081 0 0.159-0.017 0.228-0.049 0.274-0.042 0.512-0.26 0.588-0.544 0.002-0.018 0.003-0.033 0.003-0.047 0-0.066-0.011-0.128-0.032-0.187-0.002-0.012-0.004-0.031-0.004-0.050s0.002-0.037 0.006-0.055c0.053-0.188 0.053-0.206-0.131-0.312 0.077-0.136 0.13-0.273-0.077-0.35-0.005-0.010-0.009-0.023-0.009-0.036s0.003-0.025 0.009-0.036c0.112-0.154 0.047-0.254-0.107-0.314 0.089-0.267 0.089-0.267-0.107-0.379 0.101-0.261 0.095-0.267-0.095-0.367 0.083-0.267 0.077-0.284-0.101-0.421h0.19c0.034 0.005 0.073 0.007 0.113 0.007s0.079-0.003 0.117-0.008c-0.112 0.055 0.069-0.017 0.226-0.121 0.043 0.139 0.096 0.27 0.137 0.4 0.273 0.883 0.551 1.778 0.824 2.655l-4.196 3.644-4.273-3.307-7.289-2.779v0.041h-7.704c-0.003-0-0.007-0-0.010-0-0.524 0-1.004 0.191-1.373 0.506-0.517 1.611-0.817 3.468-0.817 5.395 0 1.011 0.083 2.003 0.241 2.969l2.581-6.239s0-0.261 0-0.261h5.926c0.003 0.041 0.005 0.088 0.005 0.136s-0.002 0.095-0.006 0.142l-4.077 11.484v0.065l-0.516 3.206c-1.183-1.085 0.925 1.43 3.54 3.274l0.697-3.784 0.302 0.201 4.812 3.556 0.136 2.732c1.072 0.296 2.556 0.51 4.087 0.533l-0.253-5.398-5.884-4.35 4.196-8.61 4.439 3.431c0.34 0.265 0.773 0.424 1.243 0.424 0.506 0 0.97-0.185 1.326-0.492l3.79-3.251c0-0.071 0-0.148 0-0.219l0.593 2.021c0.391 1.351 0.776 2.702 1.185 4.053 0.040 0.25 0.243 0.528 0.522 0.685 0.119 0.076 0.257 0.12 0.405 0.12 0.409 0 0.741-0.332 0.741-0.741 0-0.022-0.001-0.045-0.003-0.067 0.003-0.173-0.077-0.534-0.214-0.864zM30.596 19.437c-0.067 0.134-0.204 0.225-0.362 0.225-0.223 0-0.403-0.18-0.403-0.403s0.18-0.403 0.403-0.403c0.069 0 0.135 0.018 0.192 0.049 0.127 0.066 0.213 0.199 0.213 0.352 0 0.066-0.016 0.128-0.044 0.183z"/>
</symbol>

<symbol id="help-request">

<path d="M16.059 28.113c0.004 0 0.008 0 0.013 0 0.323 0 0.615-0.129 0.829-0.338l4.776-4.8c0.22-0.215 0.356-0.515 0.356-0.846 0-0.005-0-0.009-0-0.013l-5.973 0.001v5.997zM17.92 10.993c-1.571-1.738 0.392 0.866 2.862 2.87-1.864-1.657-0.504-0.257 1.095 0.815l0.049-4.443c0.002-0.022 0.003-0.048 0.003-0.074 0-0.566-0.459-1.025-1.025-1.025-0.028 0-0.056 0.001-0.083 0.003l-4.145-0c-0.582-0.912 0.194 0.607 1.263 1.87zM29.476 16.243c-0.081-0.261-0.681-0.843-1.418-1.176 0.266 0.083-0.39-0.212-1.096-0.38-0.131-0.056-0.735-0.176-1.361-0.22l-0.208-0.001c-0.029-0.003-0.063-0.005-0.098-0.005-0.247 0-0.473 0.087-0.651 0.231l-1.533 1.539c-0.196 0.102-1.669-0.626-2.847-1.678 1.807 1.635-0.905-0.411-2.991-2.984-0.155 0.040-1.128-1.278-1.681-2.799l1.528-1.588c0.149-0.301 0.236-0.655 0.236-1.030 0-0.235-0.034-0.461-0.098-0.675-0.002-0.441-0.201-1.119-0.534-1.712 0.327 0.326-0.361-0.648-1.252-1.386-0.146-0.135-0.362-0.234-0.6-0.251-0.152 0-0.287 0.064-0.382 0.165l-1.879 1.891c-0.503 0.498-0.845 1.229-0.871 2.040-0.007 0.123-0.011 0.262-0.011 0.401 0 0.863 0.152 1.69 0.43 2.457-0.401-0.65 0.411 1.422 1.616 3.206-1.41-1.897 0.317 0.913 2.592 3.172-1.737-1.576 0.476 0.817 3.145 2.575-0.726-0.326 1.112 0.868 3.168 1.603 0.737 0.271 1.582 0.437 2.463 0.452l0.433 0c0.773-0.011 1.513-0.342 2.057-0.872l1.878-1.878q0.421-0.403-0.036-1.096zM21.926 20.273c1.231 0.627-0.969-0.239-2.88-1.506 1.975 1.466-0.949-0.329-3.3-2.694 1.684 1.869-0.822-0.471-2.66-3.287 0.346 0.769-0.927-1.186-1.71-3.375-0.033-0.159-0.063-0.218-0.080-0.271h-3.247c-0.031-0.002-0.067-0.003-0.103-0.003-0.81 0-1.477 0.613-1.561 1.401l-0.001 16.404c0.012 0.319 0.174 0.638 0.425 0.858 0.242 0.222 0.564 0.357 0.917 0.357 0.005 0 0.010-0 0.015-0h7.288v-6.59c-0.006-0.035-0.009-0.075-0.009-0.116 0-0.142 0.041-0.274 0.112-0.385 0.051-0.108 0.181-0.215 0.338-0.251l6.457-0.001v-0.533z"/>
</symbol>

<symbol id="services-best_result">

<path opacity="0.5" d="M21.873 11.193l0.32-2.247-2.233-0.393c-0.206-0.026-0.413-0.175-0.525-0.383l-1.069-2.004-2.040 0.993c-0.097 0.050-0.212 0.079-0.333 0.079s-0.236-0.029-0.338-0.080l-2.022-0.991-1.060 2c-0.084 0.182-0.283 0.341-0.522 0.386l-2.238 0.394 0.32 2.247c0.005 0.031 0.007 0.067 0.007 0.104 0 0.2-0.079 0.382-0.207 0.517l-1.58 1.633 1.58 1.633c0.128 0.134 0.207 0.316 0.207 0.516 0 0.037-0.003 0.073-0.008 0.108l-0.32 2.243 2.233 0.393c0.206 0.026 0.413 0.175 0.525 0.383l1.062 2.004 2.040-0.993c0.097-0.050 0.212-0.079 0.333-0.079s0.236 0.029 0.337 0.081l2.036 0.991 1.067-2c0.084-0.182 0.283-0.341 0.522-0.386l2.238-0.394-0.32-2.247c-0.005-0.031-0.007-0.067-0.007-0.104 0-0.2 0.079-0.382 0.207-0.517l1.58-1.633-1.58-1.633c-0.135-0.135-0.219-0.322-0.219-0.528 0-0.032 0.002-0.064 0.006-0.095zM16 18.533c-2.809 0-5.087-2.277-5.087-5.087s2.277-5.087 5.087-5.087c2.809 0 5.087 2.277 5.087 5.087-0.004 2.808-2.279 5.083-5.086 5.087zM16 0c-8.837 0-16 7.163-16 16s7.163 16 16 16c8.837 0 16-7.163 16-16s-7.163-16-16-16zM25.22 13.967l-1.82 1.887 0.367 2.6c0.005 0.032 0.007 0.068 0.007 0.105 0 0.366-0.263 0.67-0.61 0.734l-2.071 0.361v8.047c-0.001 0.412-0.335 0.745-0.747 0.745-0.122 0-0.236-0.029-0.338-0.081l-3.996-1.998-4 2c-0.095 0.047-0.208 0.075-0.327 0.075-0.411 0-0.744-0.332-0.747-0.742v-8.047l-2.067-0.36c-0.351-0.065-0.614-0.369-0.614-0.735 0-0.037 0.003-0.074 0.008-0.109l0.366-2.596-1.827-1.887c-0.128-0.134-0.208-0.316-0.208-0.517s0.079-0.383 0.208-0.517l1.826-1.886-0.367-2.6c-0.005-0.032-0.007-0.068-0.007-0.105 0-0.366 0.263-0.67 0.61-0.734l2.591-0.454 1.207-2.32c0.128-0.237 0.375-0.396 0.659-0.396 0.119 0 0.232 0.028 0.332 0.078l2.342 1.151 2.36-1.153c0.093-0.045 0.202-0.071 0.317-0.071 0.282 0 0.527 0.156 0.654 0.387l1.235 2.324 2.587 0.453c0.351 0.065 0.614 0.369 0.614 0.735 0 0.037-0.003 0.074-0.008 0.109l-0.366 2.596 1.827 1.887c0.128 0.134 0.208 0.316 0.208 0.517s-0.079 0.383-0.208 0.517zM18.667 22.453c-0.002 0-0.004 0-0.005 0-0.117 0-0.227-0.027-0.326-0.075l-2.336-1.151-2.36 1.153c-0.093 0.045-0.202 0.071-0.317 0.071-0.282 0-0.527-0.156-0.654-0.387l-0.262-0.491v4.92l3.267-1.633c0.097-0.050 0.212-0.079 0.333-0.079s0.236 0.029 0.338 0.081l3.262 1.631v-4.92l-0.273 0.487c-0.129 0.236-0.375 0.393-0.658 0.393-0.003 0-0.006-0-0.009-0zM16 9.847c0 0 0 0 0 0-1.988 0-3.6 1.612-3.6 3.6s1.612 3.6 3.6 3.6c1.988 0 3.6-1.612 3.6-3.6-0.004-1.987-1.613-3.596-3.6-3.6zM18.567 12.613l-2.72 2.72c-0.135 0.134-0.321 0.217-0.527 0.217s-0.392-0.083-0.527-0.217l-1.333-1.333c-0.158-0.138-0.257-0.339-0.257-0.564 0-0.412 0.334-0.747 0.747-0.747 0.225 0 0.426 0.099 0.563 0.256l0.821 0.814 2.2-2.2c0.138-0.183 0.354-0.3 0.599-0.3 0.412 0 0.747 0.334 0.747 0.747 0 0.249-0.122 0.47-0.31 0.606z"/>
</symbol>

<symbol id="services-reliable">

<path opacity="0.5" d="M15.14 12.7c0.049-0.005 0.094-0.039 0.113-0.086-0.001-0.025-0.002-0.053-0.002-0.081s0.001-0.056 0.002-0.084l-0.227 0.217h0.113zM14.7 13.020h0.060c0.093 0 0.167 0 0.147-0.107-0.001-0.015-0.001-0.032-0.001-0.050s0.001-0.035 0.002-0.052zM7.88 24.187c-0.247 0.030-0.436 0.238-0.436 0.49s0.189 0.46 0.434 0.49c0.249-0.029 0.438-0.237 0.438-0.49s-0.189-0.46-0.434-0.49zM18.48 13.073c0.161 0.104-0.067-0.017-0.255-0.182 0.048 0.072-0.066-0.062-0.142-0.219-0.036-0.073-0.063-0.146-0.089-0.22-0.047 0.267-0.067 0.287-0.4 0.347 0 0.267 0 0.273-0.347 0.307 0 0.273 0 0.273-0.353 0.327 0.005 0.019 0.008 0.040 0.008 0.062 0 0.088-0.049 0.165-0.12 0.204l0.412 0.421-1.44 1.433 0.107 0.107 2.26-2.207c0.127-0.12 0.24-0.253 0.36-0.38zM16 0c-8.837 0-16 7.163-16 16s7.163 16 16 16c8.837 0 16-7.163 16-16s-7.163-16-16-16zM22.96 25.827l-7.333-7.373-0.1 0.1-4.66 4.553c-0.607 0.593-1.207 1.2-1.82 1.787 0.209-0.157-0.246 0.322-0.797 0.658-0.151 0.093-0.315 0.143-0.491 0.143-0.501 0-0.907-0.406-0.907-0.907 0-0.043 0.003-0.085 0.009-0.126 0.012-0.347 0.193-0.693 0.471-0.927l3.749-3.522q1.587-1.547 3.233-3.067l-7.947-8 2.967-2.933 0.713 0.72-1.44 1.433 0.36 0.36 1.44-1.433 1.427 1.433-1.080 1.073 0.36 0.36 1.080-1.080 1.427 1.433-1.44 1.433 0.36 0.36 1.46-1.427 1.427 1.433-0.093 0.053c0.029-0.005 0.063-0.008 0.097-0.008s0.068 0.003 0.1 0.008c0.076-0.347 0.076-0.347 0.35-0.347 0.001-0.005 0.002-0.011 0.002-0.017s-0.001-0.012-0.002-0.017c-0.040-0.259 0-0.279 0.24-0.253 0.107 0 0.12-0.033 0.1-0.133s0.040-0.233 0.213-0.2c0.044-0.001 0.093-0.015 0.135-0.041 0.011-0.047 0.018-0.102 0.018-0.159 0-0.142-0.045-0.274-0.121-0.383-0.070-0.052-0.116-0.137-0.116-0.233 0-0.077 0.029-0.147 0.078-0.199 0.24-0.346 0.46-0.706 0.713-1.046 0.181-0.467 1.109-1.322 2.239-1.781 0.138-0.062 0.26-0.091 0.388-0.091 0.188 0 0.362 0.062 0.501 0.167 0.035 0.040 0.088 0.066 0.148 0.066s0.113-0.026 0.15-0.067c0.334-0.307 0.667-0.614 1.020-0.907 0.294-0.273 0.689-0.441 1.124-0.441 0.055 0 0.109 0.003 0.163 0.008 0.613 0.052 1.216 0.454 1.554 1.030 0.301 0.388 0.622 1.177 0.717 2.035 0.023 0.12 0.035 0.233 0.035 0.349 0 0.246-0.054 0.479-0.151 0.689l-0.322-0.317c-0.208 0.204 0.005 0.024 0.17-0.195 0.010-0.026 0.014-0.050 0.014-0.075 0-0.055-0.019-0.105-0.051-0.144-0.553-0.56-1.12-1.113-1.68-1.666-0.052-0.086-0.145-0.143-0.252-0.143-0.047 0-0.091 0.011-0.13 0.030 0.671-0.452-0.126 0.001-0.783 0.603-0.053 0.034-0.090 0.097-0.090 0.17 0 0.054 0.021 0.103 0.055 0.14l1.447 1.78c0.173 0.213 0.18 0.213 0.413 0.053l0.047-0.033 0.3 0.32v0.040c-0.048 0.078-0.27 0.227-0.525 0.298-0.045 0.016-0.088 0.023-0.132 0.023s-0.087-0.008-0.126-0.022c-0.062-0.036-0.14-0.058-0.223-0.058-0.115 0-0.221 0.043-0.302 0.113 0.761-0.545 0.058-0.116-0.521 0.441-0.252 0.245-0.485 0.512-0.732 0.765-0.433 0.44-0.433 0.44-0.167 0.993v0c0.035 0.050 0.056 0.112 0.056 0.179 0 0.104-0.051 0.196-0.129 0.253q-0.341 0.294-0.668 0.607c-0.353 0.327-0.4 0.327-0.72-0.047-0.18-0.213-0.18-0.213-0.38 0l-1 1.007 0.387 0.387-1.080 1.080 0.353 0.353 1.073-1.073 1.427 1.433-1.427 1.44 0.36 0.36 1.44-1.433 1.427 1.433-1.080 1.080 0.36 0.36 1.080-1.080 1.427 1.433-1.44 1.433 0.36 0.36 1.44-1.433 1.22 1.227zM14.553 13.16l-0.227 0.227 0.113 0.113c-0.019 0.016 0.037-0.086 0.114-0.167 0.006-0.017 0.009-0.036 0.009-0.056s-0.003-0.040-0.010-0.058 0-0.039 0-0.052z"/>
</symbol>

<symbol id="services-quick">

<path opacity="0.5" d="M8.133 15.507v0l-0.24 0.607 2 0.867 0.24-0.607zM16 0c-8.837 0-16 7.163-16 16s7.163 16 16 16c8.837 0 16-7.163 16-16s-7.163-16-16-16zM20.72 4c1.44 0 2.607 1.167 2.607 2.607s-1.167 2.607-2.607 2.607c-1.44 0-2.607-1.167-2.607-2.607s1.167-2.607 2.607-2.607zM4 20l0.353-3.78 3.16 1.333-0.26 0.447s-0.187 0.407 0.5 0.753 0.873 0 0.873 0l0.293-0.587 3.293 1.4-2.667 2.58-0.080 0.187-0.373-0.153zM25.22 14.567c-0.223 0.191-0.515 0.307-0.835 0.307-0.297 0-0.57-0.101-0.788-0.27l-2.804-2.171-2.667 5.447 3.72 2.787 0.313 6.287c0.001 0.014 0.001 0.031 0.001 0.048 0 0.518-0.407 0.941-0.919 0.965l-0.669 0c-0.014 0.001-0.031 0.001-0.048 0.001-0.518 0-0.941-0.407-0.965-0.919l-0.227-5.049-3.047-2.253-0.187-0.133-0.78 4.667-6.747 0.513c-0.021 0.002-0.045 0.003-0.069 0.003-0.509 0-0.926-0.393-0.964-0.893l-0.12-1.597 0.453-0.033 1.747 0.727 0.993-1.033 2.473-0.093 0.633-3.913 2.613-7.2h-3.76l-2.193 4.973 0.733 0.32-0.287 0.667-0.107 0.26-0.107 0.38 2.24 0.947-0.333 0.827-8.053-3.293 0.453-0.94 2.413 1.027 0.107-0.253 0.107-0.26 0.287-0.667 0.707 0.3 2.38-5.367c0.206-0.455 0.657-0.766 1.18-0.767h4.88l4.667 1.753 2.707 2.093 2.92-2.507c0.168-0.145 0.389-0.233 0.63-0.233 0.534 0 0.967 0.433 0.967 0.967 0 0.293-0.13 0.555-0.336 0.732z"/>
</symbol>

<symbol id="services-best-plumbers">

<path opacity="0.5" d="M19.693 12.187c-0.153 0.15-0.363 0.243-0.594 0.243-0.2 0-0.383-0.069-0.528-0.185-0.645-0.421-1.438-0.672-2.288-0.672-0.081 0-0.161 0.002-0.241 0.007-0.058-0.004-0.138-0.007-0.219-0.007-0.851 0-1.643 0.251-2.306 0.683-0.127 0.104-0.31 0.173-0.51 0.173-0.231 0-0.441-0.093-0.594-0.243l-0.667-0.667c0 0.16 0 0.333 0 0.507 0 2.667 1.92 5.927 4.3 5.927s4.26-3.287 4.26-5.953c0-0.147 0-0.287 0-0.42zM16 0c-8.837 0-16 7.163-16 16s7.163 16 16 16c8.837 0 16-7.163 16-16s-7.163-16-16-16zM11.333 22.56c-0.368 0-0.667 0.298-0.667 0.667v5h-2.267c-0.642-0.008-1.16-0.53-1.16-1.173 0-0 0-0 0-0v-3.26c0.002-2.517 1.725-4.632 4.056-5.232l0.037 3.992zM18.927 21.16c0 0.773-0.627 1.4-1.4 1.4 0 0 0 0 0 0h-3.073c-0.773 0-1.4-0.627-1.4-1.4 0 0 0 0 0 0v-2.367c0.801 0.64 1.829 1.027 2.947 1.027s2.146-0.387 2.956-1.035l-0.009 2.374zM16 19.013c-2.147 0-3.913-1.8-4.787-4-0.6-0.153-1.147-0.667-1.24-1.787s0.233-1.54 0.667-1.753q0-0.373 0.047-0.72c0-0.147 0-0.3 0-0.453 0-2.507 2.5-4.907 4.553-5.467-0.004-0.018-0.006-0.039-0.006-0.060s0.002-0.042 0.007-0.062c0.113-0.29 0.391-0.493 0.716-0.493 0.053 0 0.105 0.005 0.155 0.016 0.040-0.010 0.092-0.016 0.145-0.016 0.326 0 0.604 0.203 0.715 0.49 0.005 0.021 0.007 0.040 0.007 0.059s-0.002 0.037-0.005 0.055c2.187 0.525 4.547 2.945 4.547 5.478 0 0.207-0.080 0.96-0.073 1.14 0.467 0.193 0.82 0.667 0.733 1.787s-0.667 1.673-1.333 1.8c-0.933 2.2-2.7 3.987-4.847 3.987zM24.733 27.047c0 0 0 0 0 0 0 0.643-0.518 1.166-1.159 1.173h-2.241v-5c0-0.368-0.298-0.667-0.667-0.667v-4c2.368 0.607 4.091 2.722 4.093 5.24v3.254z"/>
</symbol>

<symbol id="soc-google">

<path d="M10.499 31.442c-5.733 0-9.913-2.458-9.913-5.849 0-3.84 4.364-7.081 9.532-7.081h0.776c-0.492-0.581-0.805-1.363-0.817-2.217 0.001-0.476 0.098-0.953 0.275-1.39l-0.268 0.026c-4.337 0-7.489-3.003-7.489-7.142 0.014-3.758 4.051-7.197 8.49-7.197h10.465l-3.111 2.24h-1.75c1.263 1.185 2.049 2.864 2.049 4.726 0 0.105-0.003 0.209-0.007 0.313-0.042 2.057-1.118 3.955-2.751 5.126-1.531 1.198-1.681 1.586-1.681 2.396 0 0.552 1.219 1.832 2.301 2.601 2.485 1.757 3.404 3.479 3.404 6.359 0.027 3.52-3.248 7.088-9.505 7.088zM11.016 20.119c-3.404 0-6.332 2.097-6.332 4.487 0 2.594 2.546 4.623 5.801 4.623 4.262 0 6.42-1.505 6.42-4.48 0-0.326-0.040-0.643-0.115-0.946-0.301-1.178-1.322-1.872-2.861-2.921l-0.681-0.49c-0.593-0.182-1.34-0.299-2.114-0.306l-0.12-0.34v0.368zM9.818 2.642c-0.004-0-0.008-0-0.012-0-0.856 0-1.622 0.384-2.136 0.99-0.669 0.866-1.070 1.961-1.070 3.15 0 0.332 0.031 0.657 0.091 0.971 0.39 2.95 2.521 5.415 4.761 5.489v0c0.018 0 0.038 0.001 0.059 0.001 0.855 0 1.621-0.382 2.137-0.984 0.683-0.884 1.093-2.003 1.093-3.218 0-0.342-0.032-0.676-0.094-1-0.383-2.901-2.514-5.339-4.761-5.414l-0.088-0.368v0.381zM25.437 18.669v-5.842h-5.855v-3.711h5.848v-5.848h3.649v5.848h5.849v3.711h-5.842v5.835h-3.649z"/>
<path d="M28.718 9.484v-5.848h-2.921v5.848h-5.849v2.982h5.849v5.842h2.921v-5.842h5.848v-2.982h-5.849zM16.402 18.294c-0.844-0.599-2.458-2.043-2.458-2.9 0-1.001 0.286-1.491 1.791-2.669 1.512-1.041 2.564-2.823 2.648-4.856 0-2.355-1.041-4.642-3.002-5.398h2.955l2.090-1.512h-9.341c-4.18 0-8.116 3.166-8.116 6.809s2.846 6.809 7.101 6.809h0.865c-0.27 0.456-0.458 1.076-0.476 1.738 0.027 0.988 0.511 1.933 1.261 2.575l-1.609 0.004c-5.181 0-9.164 3.295-9.164 6.72s4.371 5.447 9.532 5.447c5.903 0 9.164-3.35 9.164-6.72 0.020-2.683-0.769-4.303-3.241-6.046zM11.425 13.617c-2.403-0.068-4.684-2.689-5.1-5.842s1.164-5.569 3.595-5.494 4.684 2.608 5.1 5.76-1.198 5.651-3.595 5.576zM10.485 29.59c-3.581 0-6.162-2.26-6.162-4.991s3.2-4.854 6.781-4.854c0.793 0.001 1.611 0.138 2.377 0.39 1.885 1.346 3.281 2.095 3.676 3.64 0.070 0.275 0.114 0.612 0.116 0.959-0.007 2.725-1.757 4.856-6.788 4.856z"/>
</symbol>

<symbol id="soc-fb">

<path class="an" d="M14.298 16.027h-4.323v15.414h-6.4v-15.414h-3.050v-5.447h3.050v-3.52c0-2.526 1.191-6.468 6.461-6.468h4.766v5.311h-3.466c-0.022-0.001-0.048-0.002-0.075-0.002-0.718 0-1.3 0.582-1.3 1.3 0 0.066 0.005 0.13 0.014 0.193l-0.001 3.193h4.882z"/>
</symbol>

<symbol id="soc-ok">

<path d="M10.254 5.086c1.85 0 3.35 1.5 3.35 3.35s-1.5 3.35-3.35 3.35c-1.85 0-3.35-1.5-3.35-3.35 0.004-1.848 1.501-3.346 3.349-3.35zM10.254 16.524c4.471 0 8.095-3.624 8.095-8.095s-3.624-8.095-8.095-8.095c-4.471 0-8.095 3.624-8.095 8.095 0 0.002 0 0.005 0 0.007 0.008 4.466 3.628 8.084 8.095 8.088z"/>
<path d="M13.528 23.149c0.409 0.119 2.746-0.701 4.759-1.984 0.61-0.39 1.048-1.13 1.048-1.972 0-1.31-1.062-2.373-2.373-2.373-0.468 0-0.905 0.136-1.273 0.37-1.536 0.974-3.419 1.556-5.437 1.556s-3.901-0.582-5.489-1.586c-0.316-0.203-0.753-0.339-1.221-0.339-1.31 0-2.373 1.062-2.373 2.373 0 0.842 0.439 1.582 1.1 2.003 0.034 0.241 2.21 1.371 4.605 1.933l-4.418 4.521c-0.428 0.429-0.693 1.021-0.693 1.675 0 1.309 1.062 2.371 2.371 2.371 0.656 0 1.249-0.266 1.678-0.696l4.439-4.446 4.446 4.446c0.424 0.405 1 0.654 1.634 0.654 1.309 0 2.369-1.061 2.369-2.369 0-0.634-0.249-1.21-0.654-1.635l-4.52-4.499z"/>
</symbol>

<symbol id="soc-twi">

<path d="M28.766 9.566c0 0.279 0 0.558 0 0.837 0 8.572-6.529 18.465-18.465 18.465-3.685-0-7.12-1.087-9.998-2.957 0.529 0.099 1.069 0.132 1.616 0.132 0.009 0 0.019 0 0.029 0 3.044 0 5.845-1.046 8.060-2.799-2.839-0.024-5.231-1.881-6.074-4.441 0.341 0.025 0.768 0.069 1.205 0.070 0.004 0 0.007 0 0.010 0 0.605 0 1.19-0.082 1.746-0.235-3.035-0.615-5.248-3.229-5.248-6.36 0-0.008 0-0.016 0-0.024v-0.046c0.759 0.452 1.809 0.774 2.931 0.81-1.742-1.181-2.879-3.159-2.879-5.402 0-1.203 0.327-2.329 0.897-3.295 2.943 3.841 7.806 6.55 13.31 6.837-0.066-0.449-0.13-0.966-0.13-1.498 0-3.587 2.908-6.495 6.495-6.495 1.867 0 3.549 0.787 4.734 2.048 0.51 0.071 2.474-0.574 4.181-1.602-0.268 1.18-1.375 2.69-2.882 3.604 0.619 0.043 2.274-0.358 3.777-1.038 0.375-0.208-1.227 1.867-3.278 3.364z"/>
</symbol>

<symbol id="soc-vk">

<path d="M38.128 14.196q0.912-1.178 1.443-1.886 3.84-5.106 3.329-6.529l-0.136-0.225c-0.108-0.141-0.371-0.306-0.673-0.366-0.261-0.067-0.552-0.104-0.851-0.104-0.205 0-0.406 0.018-0.601 0.051l-6.379 0.045c-0.066-0.009-0.143-0.013-0.221-0.013s-0.155 0.005-0.23 0.014c-0.025-0.005-0.16 0.023-0.285 0.070l-0.162 0.058-0.089 0.068c0.023-0.037-0.131 0.080-0.243 0.229 0.028-0.065-0.127 0.142-0.223 0.38 1.509-3.518-0.092 1.086-2.473 5.181q-0.731 1.189-1.419 2.217c0.908-1.34 0.017 0.216-1.165 1.499 0.89-1.013 0.14-0.020-0.791 0.765-0.158 0.159-0.363 0.254-0.59 0.255l-0.375-0.088c-0.085-0.013-0.337-0.245-0.493-0.537-0.098-0.145-0.221-0.491-0.262-0.862-0.049-0.385-0.049-0.685-0.049-0.937s0-0.606 0-1.069 0-0.769 0-0.933q0-0.844 0-1.832t0.054-1.566q0-0.579 0-1.219c0.001-0.038 0.002-0.083 0.002-0.128 0-0.311-0.028-0.615-0.081-0.911 0.059 0.145-0.054-0.283-0.236-0.672-0.011-0.121-0.182-0.372-0.416-0.541 0.065 0.007-0.282-0.189-0.666-0.298-0.889-0.186-1.89-0.291-2.916-0.291-0.034 0-0.069 0-0.103 0q-4.127-0.041-5.305 0.531c0.035-0.085-0.465 0.241-0.841 0.677q-0.405 0.494-0.112 0.535c0.706 0.027 1.405 0.39 1.883 0.949l0.139 0.269c0.015-0.049 0.212 0.456 0.309 0.995 0.069 0.239 0.17 0.923 0.201 1.625 0.036 0.438 0.057 0.922 0.057 1.411s-0.020 0.973-0.060 1.452q-0.105 1.095-0.207 1.735c0.009 0.167-0.109 0.638-0.309 1.064 0.262-0.562 0.045-0.005-0.267 0.486 0.019-0.016-0.032 0.047-0.097 0.090-0.177 0.070-0.381 0.11-0.594 0.11-0.002 0-0.004 0-0.007 0-0.278-0.005-0.568-0.115-0.799-0.295 0.414 0.366-0.333-0.166-0.91-0.848 1.029 1.249-0.174-0.008-1.053-1.481q-0.601-1.073-1.281-2.38l-0.354-0.647q-0.334-0.62-0.912-1.811t-1.014-2.294c-0.025-0.167-0.237-0.473-0.526-0.678l-0.12-0.071c0.082 0.040-0.118-0.1-0.344-0.187 0.030-0.004-0.231-0.098-0.507-0.145l-6.101 0.039c-0.058-0.008-0.125-0.012-0.192-0.012-0.417 0-0.796 0.166-1.074 0.435l-0.088 0.136c-0.044 0.090-0.070 0.196-0.070 0.308 0 0.016 0.001 0.032 0.002 0.049 0.001 0.173 0.051 0.401 0.14 0.609q1.357 3.12 2.896 6.028t2.723 4.684q1.157 1.777 2.356 3.357t1.586 2.043q0.388 0.443 0.613 0.681l0.558 0.531c-1.544-1.391-0.148 0.066 1.51 1.161-3.616-2.874-0.914-0.394 2.202 1.462-0.333-0.058 1.238 0.763 2.955 1.225 0.908 0.261 1.851 0.4 2.826 0.4 0.176 0 0.351-0.005 0.526-0.013l2.529 0.001c0.446-0.005 0.867-0.191 1.178-0.491l0.088-0.108c0.005 0.024 0.107-0.177 0.161-0.398 0.050-0.184 0.077-0.384 0.077-0.59 0-0.012-0-0.023-0-0.035-0.003-0.076-0.005-0.168-0.005-0.259 0-0.517 0.054-1.022 0.156-1.509-0.042-0.012 0.118-0.603 0.378-1.137-0.121 0.151 0.126-0.297 0.466-0.655-0.135 0.118 0.091-0.133 0.366-0.314l0.184-0.079c0.088-0.020 0.189-0.031 0.292-0.031 0.372 0 0.709 0.144 0.961 0.379-0.524-0.483 0.539 0.288 1.351 1.273q0.643 0.782 1.528 1.735c-0.928-0.957 0.17 0.385 1.526 1.404l0.469 0.285c-0.29-0.115 0.382 0.259 1.119 0.48 0.287 0.101 0.573 0.153 0.872 0.153 0.146 0 0.289-0.013 0.428-0.037l5.67-0.086c0.042 0.002 0.091 0.004 0.141 0.004 0.428 0 0.832-0.105 1.188-0.29 0.192-0.064 0.43-0.3 0.542-0.598 0.029-0.121 0.044-0.252 0.044-0.385s-0.015-0.264-0.044-0.389c0.019-0.004-0.048-0.31-0.161-0.592 0.181 0.419 0.048 0.052-0.144-0.275 1.092 1.116-1.204-2.274-4.206-4.871l-0.076-0.065c3.74 3.174 0.687 0.956-1.776-1.8-0.32-0.332-0.505-0.752-0.505-1.215 0-0.228 0.045-0.446 0.126-0.646-0.968 1.469 0.31-0.932 2.054-2.914z"/>
</symbol>

<symbol id="star1">

<path d="M16.196 1.173l5.209 8.533 9.742 2.329-6.524 7.591 0.8 9.991-9.227-3.858-9.244 3.858 0.8-9.991-6.524-7.591 9.742-2.329 5.227-8.533z"/>
</symbol>

<symbol id="star2">

<path d="M16 1.173l5.209 8.533 9.742 2.329-6.507 7.591 0.8 9.991-9.244-3.858-9.244 3.858 0.8-9.991-6.507-7.591 9.742-2.329 5.209-8.533z"/>
</symbol>

<symbol id="check">
<g>
	<path d="M33.641,0c-18.48,0-33.6,15.139-33.6,33.641s15.12,33.641,33.6,33.641s33.6-15.139,33.6-33.641S52.121,0,33.641,0z    M33.641,58.872c-13.86,0-25.2-11.354-25.2-25.231S19.781,8.41,33.641,8.41s25.2,11.354,25.2,25.231S47.501,58.872,33.641,58.872z"/>
	<path d="M43.301,22.287l-13.86,13.877l-5.88-5.887c-1.68-1.682-4.2-1.682-5.88,0s-1.68,4.205,0,5.887l8.82,8.831   c0.84,0.841,1.68,1.262,2.94,1.262s2.1-0.421,2.94-1.262l16.8-16.821c1.68-1.682,1.68-4.205,0-5.887   C47.501,20.605,44.981,20.605,43.301,22.287z"/>
</g>
<g>
</g>
<g>
</g>
<g>
</g>
<g>
</g>
<g>
</g>
<g>
</g>
<g>
</g>
<g>
</g>
<g>
</g>
<g>
</g>
<g>
</g>
<g>
</g>
<g>
</g>
<g>
</g>
<g>
</g>
</symbol>

<symbol id="icon-i_call2">

<path d="M32 16c0 8.837-7.163 16-16 16s-16-7.163-16-16c0-8.837 7.163-16 16-16s16 7.163 16 16z"/>
</symbol>

<symbol id="phoneme">

<path d="M15.6,22.13A24.22,24.22,0,0,0,25.87,32.4L29.29,29a1.24,1.24,0,0,1,1.56-.31,16.27,16.27,0,0,0,5.6.93A1.47,1.47,0,0,1,38,31.16v5.29A1.47,1.47,0,0,1,36.44,38,26.42,26.42,0,0,1,10,11.56,1.47,1.47,0,0,1,11.56,10H17a1.47,1.47,0,0,1,1.56,1.56,17.62,17.62,0,0,0,.93,5.6,1.92,1.92,0,0,1-.31,1.56Z"/>
</symbol>

<symbol id="phouse">
<g>
	<g>
		<path d="M5.665,9.33l4.805,6.211l9.944,0.603V14.96l3.74,1.319L32,16.925l-4.109-1.917l-2.83-3.189l-19.739-3.2L0,16.235    l0.947-0.051L5.665,9.33z M24.559,12.897l2.23,2.471l-0.428-0.01l-1.783-1.981l-1.504,1.986h-0.381L24.559,12.897z M15.155,11.377    l2.479,3.612h-0.416l-2.06-3.068l-2.061,3.068h-0.373L15.155,11.377z"/>
		<path d="M24.091,16.581l-3.37-1.19v1.077l-10.408-0.631l-4.634-5.99l-4.44,6.455v6.244l9.151,0.824v0.012l9.854-0.89v0.001    l3.492,0.209v0.002l0.012-0.001l0.039,0.003v-0.007l7.121-0.748V17.14L24.091,16.581z M4.262,13.992l2.443-0.285v2.103    l-2.443,0.17V13.992z M4.695,20.703l-2.496-0.103v-2.549l2.496-0.059V20.703z M9.184,20.86L6.16,20.74v-2.802l3.024-0.068V20.86z     M14.798,20.659l-3.144,0.119v-2.891l3.144,0.071V20.659z M19.21,20.38l-2.533,0.088v-2.586l2.533,0.064V20.38z M27.242,20.394    l-1.598,0.07v-2.041l1.598,0.025V20.394z M29.771,20.235l-1.353,0.058v-1.872l1.353,0.023V20.235z"/>
	</g>
</g>
<g>
</g>
<g>
</g>
<g>
</g>
<g>
</g>
<g>
</g>
<g>
</g>
<g>
</g>
<g>
</g>
<g>
</g>
<g>
</g>
<g>
</g>
<g>
</g>
<g>
</g>
<g>
</g>
<g>
</g>
</symbol>

<symbol id="building">
<g>
	<path d="M23.523,4.563v0.027l-1.936,0.3V4.12L10.519,1.639L0,3.971v1.391l0.628-0.118v23.924l9.84,1.193l1.761-0.242v-5.228   l2.749-0.161v5.059l1.872-0.227v-4.958l2.461-0.144v4.805l4.859-0.562l0.227-0.03v-4.523l2.023-0.116v4.396l1.389-0.167v-4.323   l1.84-0.106v4.207l1.733-0.209V7.805L32,7.919V6.345L23.523,4.563z M8.145,10.107l1.696-0.199v1.416l-1.696,0.17V10.107z    M1.349,10.923l1.43-0.168v1.299l-1.43,0.144V10.923z M2.778,23.152l-1.43-0.059v-1.275l1.43,0.035V23.152z M2.778,20.906   l-1.43-0.02v-1.273l1.43-0.008V20.906z M2.791,18.701l-1.43,0.022v-1.274l1.43-0.047V18.701z M2.791,16.528l-1.43,0.063v-1.275   l1.43-0.086V16.528z M2.791,14.243l-1.43,0.104v-1.275l1.43-0.127V14.243z M2.804,9.88l-1.431,0.184V8.788L2.804,8.58V9.88z    M2.804,7.776L1.373,7.997V6.722l1.431-0.246V7.776z M3.543,10.629l1.513-0.178v1.337L3.543,11.94V10.629z M5.057,23.209   l-1.513-0.061v-1.312l1.513,0.036V23.209z M5.057,20.896l-1.513-0.018v-1.313l1.513-0.007V20.896z M5.069,18.63l-1.513,0.024   v-1.312l1.513-0.051V18.63z M5.069,16.392l-1.513,0.066v-1.312l1.513-0.092V16.392z M5.069,14.04l-1.513,0.11v-1.311l1.513-0.136   V14.04z M5.083,9.551L3.569,9.746V8.434l1.514-0.22V9.551z M5.083,7.385L3.569,7.62V6.309l1.514-0.261V7.385z M5.758,10.381   l1.6-0.188v1.376l-1.6,0.161V10.381z M7.357,23.316l-1.6-0.064v-1.35l1.6,0.039V23.316z M7.357,20.938l-1.6-0.02v-1.35l1.6-0.007   V20.938z M7.372,18.605l-1.601,0.025v-1.35l1.601-0.052V18.605z M7.372,16.304l-1.601,0.069v-1.349l1.601-0.097V16.304z    M7.372,13.885L5.771,14v-1.349l1.601-0.143V13.885z M7.386,9.267L5.785,9.473V8.124l1.601-0.232V9.267z M7.386,7.039L5.785,7.288   V5.939l1.601-0.275V7.039z M9.841,23.424l-1.696-0.069v-1.388l1.696,0.041V23.424z M9.841,20.974l-1.696-0.021v-1.389l1.696-0.008   V20.974z M9.855,18.572L8.159,18.6v-1.389l1.696-0.057V18.572z M9.855,16.202l-1.696,0.074v-1.389l1.696-0.103V16.202z    M9.855,13.709l-1.696,0.123v-1.388l1.696-0.152V13.709z M9.871,8.954L8.174,9.172V7.784l1.697-0.246V8.954z M9.871,6.66   L8.174,6.923V5.535l1.697-0.292V6.66z M18.352,8.497l1.416,0.207v1.337l-1.416-0.182V8.497z M18.352,12.936l1.416,0.126v1.337   l-1.416-0.102V12.936z M19.779,15.247v1.336l-1.416-0.062v-1.36L19.779,15.247z M18.338,17.353l1.418,0.047v1.337l-1.418-0.021   V17.353z M16.184,8.149l1.496,0.219v1.373l-1.496-0.193V8.149z M16.184,12.709l1.496,0.135v1.372l-1.496-0.107V12.709z    M17.689,15.089v1.373l-1.494-0.065v-1.398L17.689,15.089z M16.168,17.25l1.497,0.05v1.373l-1.497-0.024V17.25z M13.963,5.506   l1.578,0.274v1.41l-1.578-0.248V5.506z M13.934,7.816l1.58,0.231v1.411l-1.58-0.204V7.816z M15.541,10.378v1.41l-1.578-0.158   v-1.437L15.541,10.378z M13.934,12.505l1.58,0.143v1.41l-1.58-0.114V12.505z M15.527,14.953v1.41l-1.58-0.069v-1.438L15.527,14.953   z M13.919,17.171l1.581,0.053v1.411l-1.581-0.025V17.171z M11.445,5.078l1.676,0.292v1.452l-1.676-0.263V5.078z M11.43,16.196   v-1.481l1.677,0.103v1.452L11.43,16.196z M13.077,17.125v1.453l-1.678-0.027v-1.482L13.077,17.125z M13.092,11.524l-1.677-0.169   V9.874l1.677,0.197V11.524z M11.385,7.425l1.678,0.246v1.453l-1.678-0.217V7.425z M11.385,12.258l1.678,0.151v1.453l-1.678-0.122   V12.258z M11.398,19.551l1.678,0.008v1.452l-1.678,0.022V19.551z M13.154,23.389l-1.674,0.068v-1.48l1.674-0.039V23.389z    M13.919,19.58l1.581,0.007v1.409l-1.581,0.021V19.58z M15.559,23.283l-1.579,0.065v-1.437l1.578-0.039L15.559,23.283   L15.559,23.283z M16.168,19.593l1.497,0.006v1.373l-1.497,0.021V19.593z M17.7,23.213l-1.495,0.062v-1.397l1.495-0.036V23.213z    M17.704,12.009l-1.494-0.15v-1.399l1.494,0.176V12.009z M17.704,7.534L16.21,7.299V5.901l1.494,0.261V7.534z M18.337,19.633   l1.418,0.005v1.337l-1.418,0.02V19.633z M19.783,23.156l-1.417,0.06v-1.36l1.417-0.035V23.156z M19.793,12.248l-1.416-0.142v-1.361   l1.416,0.167V12.248z M19.793,7.892l-1.416-0.223v-1.36l1.416,0.247V7.892z M21.618,8.866l1.337,0.197v3.538l-1.337-0.134V8.866z    M21.629,13.169l1.337,0.12v3.538l-1.337-0.058V13.169z M21.641,17.421l1.336,0.045v3.536l-1.336,0.02V17.421z M22.979,23.076   l-1.334,0.057v-1.335l1.334-0.033V23.076z M29.346,10.236l1.051,0.151v1.152l-1.051-0.134V10.236z M29.346,14.051l1.051,0.092   v1.151l-1.051-0.073V14.051z M30.404,16.026v1.152l-1.051-0.044v-1.17L30.404,16.026z M29.335,17.848l1.052,0.033v1.15   l-1.052-0.014V17.848z M27.749,9.979l1.101,0.159v1.179l-1.101-0.14V9.979z M27.749,13.885l1.101,0.096v1.18l-1.101-0.078V13.885z    M28.857,15.909v1.179l-1.1-0.047v-1.197L28.857,15.909z M27.738,17.771l1.101,0.035v1.18l-1.101-0.017V17.771z M26.128,7.767   l1.151,0.198v1.207l-1.151-0.179V7.767z M26.105,9.739l1.153,0.167v1.206l-1.153-0.146V9.739z M27.279,11.897v1.206l-1.151-0.113   v-1.226L27.279,11.897z M26.105,13.738l1.154,0.101v1.206l-1.152-0.081v-1.226H26.105z M27.27,15.812v1.206l-1.152-0.049v-1.226   L27.27,15.812z M26.096,17.717l1.153,0.037v1.205l-1.153-0.016V17.717z M24.305,7.463l1.213,0.209v1.237l-1.213-0.188V7.463z    M24.294,16.902v-1.258l1.212,0.071v1.237L24.294,16.902z M25.484,17.683v1.237l-1.213-0.018v-1.259L25.484,17.683z M25.495,12.913   l-1.212-0.12v-1.258l1.212,0.141V12.913z M24.262,9.456l1.213,0.176v1.237l-1.213-0.154V9.456z M24.262,13.56l1.213,0.107v1.237   l-1.213-0.086V13.56z M24.271,19.752l1.213,0.003v1.237l-1.213,0.018V19.752z M25.541,23.017L24.33,23.07v-1.259l1.211-0.03V23.017   z M26.096,19.771l1.153,0.003v1.206l-1.153,0.018V19.771z M27.292,22.937l-1.151,0.05v-1.226l1.151-0.03V22.937z M27.738,19.779   l1.101,0.002v1.178l-1.101,0.019V19.779z M28.865,22.884l-1.1,0.047v-1.197l1.1-0.028V22.884z M28.868,13.263l-1.099-0.108v-1.197   l1.099,0.128V13.263z M28.868,9.421L27.77,9.25V8.053l1.1,0.189L28.868,9.421L28.868,9.421z M29.335,19.808l1.052,0.002v1.152   l-1.052,0.017V19.808z M30.407,22.842l-1.05,0.046v-1.17l1.05-0.027V22.842z M30.414,13.44l-1.051-0.103v-1.17l1.051,0.121V13.44z    M30.414,9.686l-1.051-0.162v-1.17l1.051,0.181V9.686z"/>
</g>
<g>
</g>
<g>
</g>
<g>
</g>
<g>
</g>
<g>
</g>
<g>
</g>
<g>
</g>
<g>
</g>
<g>
</g>
<g>
</g>
<g>
</g>
<g>
</g>
<g>
</g>
<g>
</g>
<g>
</g>
</symbol>

<symbol id="combuild">
<g>
	<g>
		<polygon points="13.885,25.765 0.002,18.356 0,20.249 13.885,28.23 32,17.818 32,16.119 13.885,25.758   "/>
		<path d="M13.256,24.774l-0.017-14.23L0.674,7.141L0.69,18.229L13.256,24.774z M9.179,11.736l3.229,1.02v0.987l-3.229-1.077V11.736    z M9.179,13.487l3.229,1.126V15.6l-3.229-1.183V13.487z M9.179,15.063l3.229,1.222v0.988l-3.229-1.278V15.063z M5.179,10.472    l3.112,0.983v0.915l-3.112-1.037V10.472z M5.179,12.091l3.112,1.086v0.915l-3.112-1.14V12.091z M5.179,13.55l3.112,1.178v0.915    l-3.112-1.231V13.55z M1.738,9.385l2.369,0.749v0.842l-2.369-0.79V9.385z M1.738,10.892l2.369,0.826v0.843l-2.369-0.868V10.892z     M1.738,12.249l2.369,0.896v0.843l-2.369-0.939V12.249z"/>
		<path d="M23.553,6.395v1.6l-9.668,2.619v14.488l15.139-7.885v-4.093L32,11.857v-7.47L23.553,6.395z M18.591,20.32l-3.383,1.614    v-1.945l3.383-1.498V20.32z M18.591,17.825l-3.383,1.455v-1.945l3.383-1.339V17.825z M18.591,15.281l-3.383,1.294V14.63    l3.383-1.178V15.281z M18.591,12.666l-3.383,1.128v-1.945l3.383-1.012V12.666z M26.031,17.838l-1.658,0.828v-1.407l1.658-0.78    V17.838z M26.031,15.584l-1.658,0.748v-1.408l1.658-0.699V15.584z M26.031,13.049l-1.658,0.656v-1.408l1.658-0.606V13.049z     M26.031,10.795l-1.658,0.575V9.962l1.658-0.525V10.795z M26.031,8.682l-1.658,0.499V7.773l1.658-0.449V8.682z M27.941,16.881    l-1.521,0.762v-1.348l1.521-0.716V16.881z M27.941,14.722l-1.521,0.686v-1.347l1.521-0.641V14.722z M27.941,12.293l-1.521,0.602    v-1.348l1.521-0.557V12.293z M27.941,10.133l-1.521,0.527V9.313l1.521-0.481V10.133z M27.941,8.109l-1.521,0.456V7.218    l1.521-0.412V8.109z M29.673,11.608l-1.401,0.555v-1.292l1.401-0.514V11.608z M29.673,9.534l-1.401,0.485V8.727l1.401-0.444V9.534    z M29.673,7.588l-1.401,0.421V6.717l1.401-0.38V7.588z M31.301,10.964l-1.294,0.512v-1.241l1.294-0.474V10.964z M31.301,8.969    l-1.294,0.448v-1.24l1.294-0.41V8.969z M31.301,7.099l-1.294,0.389v-1.24l1.294-0.351V7.099z"/>
		<polygon points="19.65,8.683 19.65,8.7 21.072,8.324 21.076,8.323 21.076,8.323 23.287,7.739 23.287,7.201 19.65,6.537     19.65,6.544 11.299,5.041 0.883,6.778 13.662,10.197   "/>
		<polygon points="31.648,4.273 27.577,3.77 19.654,5.354 19.654,5.589 23.343,6.207   "/>
		<polygon points="23.303,7.004 23.299,6.434 19.65,5.813 19.654,6.35   "/>
	</g>
</g>
<g>
</g>
<g>
</g>
<g>
</g>
<g>
</g>
<g>
</g>
<g>
</g>
<g>
</g>
<g>
</g>
<g>
</g>
<g>
</g>
<g>
</g>
<g>
</g>
<g>
</g>
<g>
</g>
<g>
</g>
</symbol>

<symbol id="tradebuild">
<g>
	<g>
		<polygon points="28.393,6.062 14.065,5.764 20.395,6.561 24.906,9.435   "/>
		<polygon points="19.912,6.815 5.534,4.842 1.94,7.873 16.409,11.733   "/>
		<path d="M16.753,23.762l14.075-7.326V8.183l-2.057-2.121l-3.816,3.764l-4.622-2.915l-3.58,5.182V23.762z M26.316,13.281    l3.523-1.358v0.494l-3.523,1.41V13.281z M26.316,14.223l3.523-1.443v0.494l-3.523,1.496V14.223z M26.316,15.107l3.523-1.529v0.494    l-3.523,1.58V15.107z M26.316,15.95l3.523-1.609v0.495l-3.523,1.66V15.95z M18.455,16.204l5.07-1.943v0.588l-5.07,2.019V16.204z     M18.455,17.346l5.07-2.067v0.588l-5.07,2.141V17.346z M18.455,18.416l5.07-2.188v0.587l-5.07,2.263V18.416z M18.455,19.439    l5.07-2.305v0.587l-5.07,2.378V19.439z"/>
		<path d="M16.223,12.118L1.856,8.241v8.149l14.365,7.365V12.118H16.223z M3.927,11.948l-1.485-0.537V9.318l1.484,0.443    L3.927,11.948L3.927,11.948z M6.279,12.837L4.59,12.224v-2.23L6.279,10.5V12.837z M8.886,13.736l-1.931-0.7v-2.381l1.931,0.577    V13.736z M11.905,14.838l-2.228-0.807v-2.553l2.229,0.665L11.905,14.838L11.905,14.838z M15.403,16.043l-2.601-0.939v-2.751    l2.601,0.772V16.043z"/>
		<polygon points="32,16.273 16.428,24.598 0,15.808 0,17.459 16.434,27.14 16.434,27.154 16.445,27.146 16.465,27.158     16.465,27.135 32,17.99   "/>
	</g>
</g>
<g>
</g>
<g>
</g>
<g>
</g>
<g>
</g>
<g>
</g>
<g>
</g>
<g>
</g>
<g>
</g>
<g>
</g>
<g>
</g>
<g>
</g>
<g>
</g>
<g>
</g>
<g>
</g>
<g>
</g>
</symbol>

<symbol id="work-filter">
<g>
	<path d="M15.305,13.731v12.013c0,1.621-1.318,2.938-2.939,2.938c-1.619,0-2.936-1.317-2.936-2.938v-3.24H5.876v3.24   c0,1.621-1.318,2.938-2.938,2.938C1.317,28.683,0,27.366,0,25.745V13.731c0-1.621,1.316-2.939,2.938-2.939   c1.619,0,2.938,1.318,2.938,2.939v3.153h3.555v-3.153c0-1.621,1.316-2.939,2.936-2.939C13.986,10.792,15.305,12.11,15.305,13.731z    M23.756,29.267H22.65c1.768-1.396,2.899-2.566,2.899-4.771c0-2.608-1.909-4.359-4.753-4.359c-1.824,0-3.156,0.604-4.326,1.963   c-0.322,0.382-0.508,0.882-0.508,1.369c0,1.129,0.918,2.047,2.049,2.047c0.586,0,1.139-0.236,1.512-0.647   c0.574-0.615,0.834-0.662,1.115-0.662c0.502,0,0.545,0.246,0.545,0.498c0,0.446-0.227,0.832-1.57,1.932l-3.145,2.574   c-0.643,0.521-0.98,1.194-0.98,1.951c0,1.213,0.947,2.096,2.254,2.096h6.014c1.104,0,2.002-0.891,2.002-1.985   C25.758,30.165,24.859,29.267,23.756,29.267z M43.922,19.695c0,5.131-4.09,9.117-9.311,9.117c-5.283,0-9.269-3.884-9.269-9.03   c0-5.13,4.091-9.116,9.313-9.116C39.939,10.666,43.922,14.546,43.922,19.695z M37.896,19.782c0-2.014-1.412-3.498-3.283-3.498   c-1.877,0-3.239,1.435-3.239,3.412c0,2.014,1.412,3.5,3.284,3.5C36.533,23.193,37.896,21.758,37.896,19.782z"/>
</g>
<g>
</g>
<g>
</g>
<g>
</g>
<g>
</g>
<g>
</g>
<g>
</g>
<g>
</g>
<g>
</g>
<g>
</g>
<g>
</g>
<g>
</g>
<g>
</g>
<g>
</g>
<g>
</g>
<g>
</g>
</symbol>

<symbol id="calculation">
<g>
	<path d="M615.387,891h-125.5v22c0,33.1,26.899,60,60,60h234.6c33.1,0,60-26.9,60-60V61c0-33.1-26.9-60-60-60h-234.6   c-33.101,0-60,26.9-60,60v22h125.5c16.6,0,30,13.4,30,30s-13.4,30-30,30h-125.5v60.7h63.6c16.6,0,30,13.4,30,30   c0,16.6-13.4,30-30,30h-63.6v66h63.6c16.6,0,30,13.4,30,30c0,16.6-13.4,30-30,30h-63.6v66h125.5c16.6,0,30,13.399,30,30   c0,16.6-13.4,30-30,30h-125.5v64.6h63.6c16.6,0,30,13.4,30,30c0,16.601-13.4,30-30,30h-63.6v66h63.6c16.6,0,30,13.4,30,30   c0,16.601-13.4,30-30,30h-63.6V831h125.5c16.6,0,30,13.4,30,30S631.987,891,615.387,891z"/>
	<polygon points="327.487,191.2 135.087,191.2 136.787,771.4 329.086,771.4  "/>
	<path d="M279.586,0h-97.3c-23.5,0-47.5,23.6-47.5,46.6l0.2,84.6h192.3l-0.2-84.6C326.987,23.6,302.987,0,279.586,0z"/>
	<path d="M223.887,970.4c7.4,12.3,25.8,11.699,32.3-1.101l69.2-136.8c0.199-0.4,0.3-0.7,0.5-1.1h-185c0.3,0.6,0.7,1.3,1,1.899   L223.887,970.4z"/>
</g>
<g>
</g>
<g>
</g>
<g>
</g>
<g>
</g>
<g>
</g>
<g>
</g>
<g>
</g>
<g>
</g>
<g>
</g>
<g>
</g>
<g>
</g>
<g>
</g>
<g>
</g>
<g>
</g>
<g>
</g>
</symbol>

<symbol id="checkpro">
<g>
	<path d="M71,30c0-3.3-2.7-6-6-6h-6c-3.3,0-6,2.7-6,6v41c0,3.3,2.7,6,6,6h6c3.3,0,6-2.7,6-6V30z"/>
	<circle cx="62" cy="92" r="9"/>
	<path d="M109.2,53.2C109.7,56,110,59,110,62c0,26.5-21.5,48-48,48S14,88.5,14,62s21.5-48,48-48c12.6,0,24,4.9,32.6,12.8l9.9-9.9   C93.4,6.4,78.4,0,62,0C27.8,0,0,27.8,0,62s27.8,62,62,62s62-27.8,62-62c0-7.1-1.2-13.9-3.4-20.2L109.2,53.2z"/>
	<path d="M91.4,37L89.3,34.9c-2.399-2.4-6.2-2.4-8.5,0c-2.399,2.4-2.399,6.2,0,8.5l8.9,8.9c1.1,1.1,2.7,1.8,4.3,1.8s3.1-0.6,4.3-1.8   l23-23c2.3-2.3,2.5-6.1,0.3-8.5c-2.3-2.5-6.3-2.6-8.699-0.1L96.4,37C95,38.4,92.8,38.4,91.4,37z"/>
</g>
<g>
</g>
<g>
</g>
<g>
</g>
<g>
</g>
<g>
</g>
<g>
</g>
<g>
</g>
<g>
</g>
<g>
</g>
<g>
</g>
<g>
</g>
<g>
</g>
<g>
</g>
<g>
</g>
<g>
</g>
</symbol>

<symbol id="guarantee">
<path d="M214.419,32.12c-0.412-2.959-2.541-5.393-5.419-6.193L116.76,0.275c-1.315-0.366-2.704-0.366-4.02,0L20.5,25.927  c-2.878,0.8-5.007,3.233-5.419,6.193c-0.535,3.847-12.74,94.743,18.565,139.961c31.268,45.164,77.395,56.738,79.343,57.209  c0.579,0.14,1.169,0.209,1.761,0.209s1.182-0.07,1.761-0.209c1.949-0.471,48.076-12.045,79.343-57.209  C227.159,126.864,214.954,35.968,214.419,32.12z M174.233,85.186l-62.917,62.917c-1.464,1.464-3.384,2.197-5.303,2.197  s-3.839-0.732-5.303-2.197l-38.901-38.901c-1.407-1.406-2.197-3.314-2.197-5.303s0.791-3.897,2.197-5.303l7.724-7.724  c2.929-2.928,7.678-2.929,10.606,0l25.874,25.874l49.89-49.891c1.406-1.407,3.314-2.197,5.303-2.197s3.897,0.79,5.303,2.197  l7.724,7.724C177.162,77.508,177.162,82.257,174.233,85.186z"/>
<g>
</g>
<g>
</g>
<g>
</g>
<g>
</g>
<g>
</g>
<g>
</g>
<g>
</g>
<g>
</g>
<g>
</g>
<g>
</g>
<g>
</g>
<g>
</g>
<g>
</g>
<g>
</g>
<g>
</g>
</symbol>

<symbol id="tool">
<path d="M453,63.889h-11c-7.72,0-14,6.28-14,14v33.117h-32.148v-4.095c0-17.686-12.555-31.022-29.205-31.022  c-16.65,0-29.206,13.337-29.206,31.022v4.095h-90.059V88.889c0-8.284-6.716-15-15-15c-8.284,0-15,6.716-15,15v22.117h-81.907v-2.553  c5.596-2.179,9.579-7.612,9.579-13.97v-3.594c0-8.271-6.729-15-15-15H85.928c-8.271,0-15,6.729-15,15v3.594  c0,6.358,3.983,11.791,9.58,13.971v2.553H39V77.889c0-7.72-6.28-14-14-14H14c-7.72,0-14,6.28-14,14v106.859c0,7.72,6.28,14,14,14h11  c7.72,0,14-6.28,14-14v-29.925h41.507v43.436c0,0.179,0.014,0.359,0.025,0.539c-5.609,2.173-9.604,7.612-9.604,13.98v3.594  c0,8.271,6.729,15,15,15h12.063v98.119h-5.092c-2.05,0-3.941,0.893-5.187,2.447c-1.246,1.556-1.704,3.596-1.256,5.597l13.37,59.715  c0.747,3.342,3.893,5.861,7.316,5.861h1.697c3.423,0,6.569-2.52,7.316-5.859l13.369-59.715c0.449-2.001-0.008-4.041-1.254-5.597  c-1.246-1.557-3.137-2.449-5.188-2.449h-5.092v-98.119h12.063c8.271,0,15-6.729,15-15v-3.594c0-6.367-3.994-11.806-9.603-13.979  c0.01-0.18,0.024-0.36,0.024-0.539v-43.436h81.907v123.537c-28.994,6.805-50.653,32.864-50.653,63.904  c0,23.495,12.685,45.345,33.102,57.022c1.059,0.607,2.288,0.927,3.553,0.927c1.811,0,3.516-0.66,4.8-1.859  c1.446-1.35,2.242-3.277,2.242-5.41c0.001-0.33,0.127-33.091,0.127-43.96c0-1.243,1.408-2.65,2.042-3.104l0.395-0.297  c7.139-5.938,16.273-12.673,19.413-13.975c3.188,1.29,12.466,8.139,19.706,14.191l0.078,0.107l0.28,0.169  c0.334,0.271,1.758,1.568,1.758,3.966c0,11.314,0.116,42.574,0.117,42.87c0,4.823,3.446,7.347,6.849,7.347  c1.324,0,2.69-0.365,3.846-1.029c20.355-11.69,33-33.518,33-56.964c0-31.04-21.659-57.099-50.654-63.904V154.823h90.059v49.723  c0,4.77,3.52,9.84,10.042,9.84h9.165v106.599h-1.146c-4.273,0-8.602,3.025-10.07,7.038l-6.529,17.833  c-1.191,3.249-1.076,7.921,0.271,11.107l15.446,36.542c1.65,3.904,5.924,6.738,10.163,6.738h3.73c4.238,0,8.513-2.834,10.163-6.738  l15.446-36.542c1.347-3.187,1.461-7.857,0.272-11.105l-6.53-17.835c-1.469-4.013-5.798-7.038-10.071-7.038h-1.144V214.386h9.365  c6.391,0,9.839-5.069,9.839-9.84v-49.723H428v29.925c0,7.72,6.28,14,14,14h11c7.72,0,14-6.28,14-14V77.889  C467,70.169,460.72,63.889,453,63.889z"/>
<g>
</g>
<g>
</g>
<g>
</g>
<g>
</g>
<g>
</g>
<g>
</g>
<g>
</g>
<g>
</g>
<g>
</g>
<g>
</g>
<g>
</g>
<g>
</g>
<g>
</g>
<g>
</g>
<g>
</g>
</symbol>

<symbol id="time">
<g>
	<path d="M35.469,18.384c0,9.104-7.406,16.512-16.512,16.512c-9.078,0-16.465-7.365-16.507-16.434H0l3.669-5.506l3.669,5.506H5.201   c0.042,7.551,6.195,13.682,13.755,13.682c7.587,0,13.76-6.172,13.76-13.76c0-7.588-6.173-13.76-13.76-13.76   c-0.761,0-1.376-0.617-1.376-1.377c0-0.76,0.615-1.375,1.376-1.375C28.062,1.873,35.469,9.28,35.469,18.384z M18.959,28.628   c-5.648,0-10.244-4.595-10.244-10.244c0-0.254-0.205-0.459-0.459-0.459c-0.253,0-0.458,0.205-0.458,0.459   c0,6.154,5.007,11.162,11.161,11.162c6.152,0,11.16-5.008,11.16-11.162c0-6.152-5.008-11.162-11.16-11.162   c-0.253,0-0.458,0.207-0.458,0.46c0,0.254,0.205,0.459,0.458,0.459c5.646,0,10.242,4.596,10.242,10.242   C29.201,24.033,24.605,28.628,18.959,28.628z M13.661,25.081c0.269,0.27,0.621,0.402,0.973,0.402s0.704-0.135,0.973-0.402   l4.324-4.324c0.259-0.258,0.403-0.606,0.403-0.973v-7.783c0-0.761-0.616-1.377-1.376-1.377c-0.761,0-1.376,0.616-1.376,1.377v7.212   l-3.92,3.92C13.125,23.671,13.125,24.542,13.661,25.081z M3.212,7.224c0-3.674,2.978-6.65,6.65-6.65s6.65,2.979,6.65,6.65   c0,3.671-2.978,6.65-6.65,6.65S3.212,10.896,3.212,7.224z M5.235,7.318l2.969,2.968c0.179,0.18,0.414,0.271,0.648,0.271   c0.235,0,0.47-0.09,0.649-0.271l4.974-4.975c0.358-0.358,0.358-0.938,0-1.297c-0.358-0.359-0.939-0.358-1.297,0L8.852,8.338   l-2.32-2.318c-0.358-0.357-0.94-0.357-1.297,0C4.876,6.38,4.876,6.96,5.235,7.318z"/>
</g>
<g>
</g>
<g>
</g>
<g>
</g>
<g>
</g>
<g>
</g>
<g>
</g>
<g>
</g>
<g>
</g>
<g>
</g>
<g>
</g>
<g>
</g>
<g>
</g>
<g>
</g>
<g>
</g>
<g>
</g>
</symbol>

<symbol id="discount">
  <g>
    <path d="m268.115,109.241l-.007-48.16-45.821-14.862-28.274-39.001-45.808,14.944-45.809-14.943-28.273,39-45.821,14.862-.007,48.161-28.295,38.963 28.296,38.964 .006,48.16 45.821,14.862 28.274,39.001 45.808-14.944 45.809,14.943 28.273-39 45.821-14.862 .007-48.161 28.295-38.963-28.295-38.964zm-171.548,25.239c-4.941-4.971-7.695-11.228-7.695-18.772v-6.753c0-7.602 2.739-13.903 7.651-18.903 4.913-4.999 12.041-7.498 21.106-7.498 9.18,0 16.095,2.499 21.006,7.498 4.913,5 7.237,11.302 7.237,18.903v6.753c0,7.603-2.254,13.874-7.167,18.813-4.912,4.943-11.94,7.412-21.003,7.412-9.122,0.001-16.193-2.484-21.135-7.453zm26.026,68.062l-13.77-6.93 62.363-99.814 13.772,6.93-62.365,99.814zm84.279-14.997c0,7.66-2.392,13.961-7.275,18.902-4.883,4.941-11.83,7.409-20.894,7.409-9.121,0-16.257-2.483-21.258-7.454-4.997-4.97-7.573-11.256-7.573-18.857v-6.754c0-7.543 2.573-13.815 7.544-18.815 4.969-5.001 12.031-7.499 21.093-7.499 9.18,0 16.183,2.487 21.066,7.454 4.883,4.972 7.297,11.258 7.297,18.86v6.754z"/>
    <path d="m124.645,122.965c1.608-1.947 2.227-4.373 2.227-7.279v-6.711c0-2.903-0.635-5.357-2.272-7.362-1.639-2.005-3.884-3.008-6.924-3.008-2.981,0-5.504,1.003-7.14,3.008-1.637,2.005-2.664,4.459-2.664,7.362v6.711c0,2.906 1.074,5.332 2.71,7.279 1.637,1.945 4.041,2.918 7.142,2.918 2.981-1.42109e-14 5.312-0.973 6.921-2.918z"/>
    <path d="m178.554,170.527c-3.041,0-5.485,1.005-7.12,3.008-1.641,2.005-2.562,4.432-2.562,7.278v6.708c0,2.792 1.039,5.201 2.912,7.236 1.871,2.033 4.203,3.048 6.893,3.048 3.625,0 6.03-0.899 7.318-2.702 1.284-1.8 1.877-4.327 1.877-7.582v-6.708c0-2.847-0.755-5.273-2.422-7.278-1.667-2.003-3.915-3.008-6.896-3.008z"/>
  </g>
</symbol>

<symbol id="professional">
<g>
	<g>
		<path d="M17.306,27.859v4.52c0,1.48,1.199,2.68,2.679,2.68h5.909c1.479,0,2.679-1.199,2.679-2.68v-4.521    c-1.654,1.227-3.564,1.965-5.635,1.965C20.868,29.822,18.96,29.085,17.306,27.859z"/>
		<path d="M31.825,27.395l0.008,7.664c0.694,0,1.258,0.562,1.258,1.258v9.562h4.34c1.224,0,2.217-1.017,2.217-2.242v-6.221    C39.646,32.676,36.422,28.546,31.825,27.395z"/>
		<path d="M6.231,37.415v6.221c0,1.226,0.993,2.242,2.217,2.242h4.339v-9.556c0-0.698,0.565-1.264,1.264-1.264l0.001-7.664    C9.455,28.546,6.231,32.676,6.231,37.415z"/>
		<path d="M34.604,17.203c0.175-2.131-0.508-3.036-1.398-3.41c-0.013-0.349,0.135-1.787,0.135-2.184    c0-4.843-4.514-9.472-8.688-10.482c0.026-0.065,0.04-0.133,0.04-0.204c0-0.51-0.74-0.923-1.657-0.923    c-0.916,0-1.658,0.414-1.658,0.923c0,0.081,0.019,0.159,0.053,0.233c-3.917,1.068-8.698,5.655-8.698,10.452    c0,0.293,0.018,0.584,0.044,0.87c-0.04,0.437-0.068,0.895-0.086,1.374c-0.824,0.408-1.433,1.326-1.267,3.351    c0.177,2.127,1.22,3.121,2.373,3.412c1.67,4.226,5.049,7.665,9.153,7.665c4.092,0,7.467-3.422,9.139-7.632    C33.299,20.403,34.42,19.418,34.604,17.203z M22.949,26.225c-4.555,0-8.223-6.199-8.223-11.331c0-0.335,0.007-0.657,0.018-0.969    l1.33,1.307c0.583,0.573,1.499,0.619,2.139,0.11c0.995-0.792,2.782-1.327,4.822-1.327c2.04,0,3.827,0.535,4.822,1.327    c0.638,0.508,1.556,0.462,2.138-0.109l1.166-1.144c0.006,0.261,0.01,0.529,0.01,0.805C31.17,20.026,27.502,26.225,22.949,26.225z"/>
	</g>
</g>
<g>
</g>
<g>
</g>
<g>
</g>
<g>
</g>
<g>
</g>
<g>
</g>
<g>
</g>
<g>
</g>
<g>
</g>
<g>
</g>
<g>
</g>
<g>
</g>
<g>
</g>
<g>
</g>
<g>
</g>
</symbol>

<symbol id="deed">
<path d="M234.776,0H62.224c-5.775,0-10.458,4.683-10.458,10.458v276.084c0,5.775,4.683,10.458,10.458,10.458h172.553  c5.775,0,10.458-4.683,10.458-10.458V10.458C245.234,4.683,240.552,0,234.776,0z M113.99,62.224c9.528,0,17.256,7.726,17.256,17.255  s-7.727,17.256-17.256,17.256c-9.53,0-17.255-7.727-17.255-17.256S104.46,62.224,113.99,62.224z M86.869,227.979  c-5.772,0-10.458-4.686-10.458-10.457c0-5.773,4.686-10.458,10.458-10.458c5.783,0,10.457,4.684,10.457,10.458  C97.326,223.293,92.652,227.979,86.869,227.979z M99.444,151.211l86.276-86.275c3.269-3.267,8.564-3.267,11.833,0  c3.267,3.268,3.267,8.563,0,11.832l-86.276,86.276c-1.635,1.633-3.775,2.45-5.917,2.45c-2.141,0-4.281-0.817-5.916-2.45  C96.178,159.775,96.178,154.48,99.444,151.211z M200.265,148.5c0,9.529-7.725,17.255-17.255,17.255  c-9.528,0-17.256-7.726-17.256-17.255s7.728-17.255,17.256-17.255C192.54,131.245,200.265,138.971,200.265,148.5z M111.528,227.979  c-5.782,0-10.458-4.686-10.458-10.457c0-5.773,4.676-10.458,10.458-10.458c5.774,0,10.458,4.684,10.458,10.458  C121.986,223.293,117.302,227.979,111.528,227.979z M136.178,227.979c-5.784,0-10.458-4.686-10.458-10.457  c0-5.773,4.674-10.458,10.458-10.458c5.771,0,10.457,4.684,10.457,10.458C146.635,223.293,141.949,227.979,136.178,227.979z   M160.827,227.979c-5.773,0-10.458-4.686-10.458-10.457c0-5.773,4.684-10.458,10.458-10.458c5.771,0,10.457,4.684,10.457,10.458  C171.284,223.293,166.599,227.979,160.827,227.979z M185.475,227.979c-5.771,0-10.458-4.686-10.458-10.457  c0-5.773,4.686-10.458,10.458-10.458c5.773,0,10.458,4.684,10.458,10.458C195.933,223.293,191.248,227.979,185.475,227.979z   M210.124,227.979c-5.772,0-10.458-4.686-10.458-10.457c0-5.773,4.686-10.458,10.458-10.458c5.773,0,10.458,4.684,10.458,10.458  C220.582,223.293,215.896,227.979,210.124,227.979z"/>
<g>
</g>
<g>
</g>
<g>
</g>
<g>
</g>
<g>
</g>
<g>
</g>
<g>
</g>
<g>
</g>
<g>
</g>
<g>
</g>
<g>
</g>
<g>
</g>
<g>
</g>
<g>
</g>
<g>
</g>
</symbol>

<symbol id="discountsoc">
<g>
	<path d="M0,141.467v36.37c0,5.69,4.613,10.304,10.304,10.304h33.425v-39.175c0-13.63,3.309-26.493,9.135-37.864   c-12.09-0.718-23.009-5.835-31.187-13.77C8.495,107.539,0,123.506,0,141.467z"/>
	<path d="M78.616,81.218c-5.225-8.579-8.236-18.646-8.236-29.403c0-6.551,1.13-12.839,3.183-18.697   c-5.172-3.171-11.254-5.001-17.765-5.001c-18.8,0-34.041,15.239-34.041,34.04c0,18.8,15.241,34.041,34.041,34.041   c2.589,0,5.107-0.299,7.531-0.847C67.813,90.029,72.951,85.282,78.616,81.218z"/>
	<path d="M171.078,150.335c5.518,0,10.918,1.226,15.834,3.515l8.482-6.204c-0.432-22.684-11.904-42.655-29.279-54.77   c-10.175,9.679-23.919,15.639-39.037,15.639c-15.118,0-28.862-5.96-39.038-15.638c-17.712,12.35-29.312,32.86-29.312,56.091v44.552   c0,6.971,5.651,12.622,12.622,12.622h66.796c-2.988-5.393-4.696-11.589-4.696-18.178   C133.45,167.214,150.33,150.335,171.078,150.335z"/>
	<circle cx="127.078" cy="51.815" r="41.698"/>
	<path d="M247.104,215.36c-3.436,0-6.672,0.822-9.558,2.248l-40.529-29.645l40.234-29.431c2.957,1.518,6.301,2.391,9.852,2.391   c11.279,0,20.53-8.636,21.529-19.652c1.163-12.944-9.064-23.603-21.529-23.603c-11.944,0-21.628,9.683-21.628,21.628   c0,0.99,0.09,1.957,0.219,2.911l-40.359,29.521c-3.96-3.473-9.025-5.393-14.258-5.393c-11.944,0-21.628,9.683-21.628,21.628   c0,11.944,9.684,21.628,21.628,21.628c5.273,0,10.329-1.941,14.258-5.394l40.408,29.557c-0.159,1.058-0.268,2.132-0.268,3.234   c0,11.944,9.684,21.628,21.628,21.628c11.912,0,21.629-9.655,21.629-21.628C268.733,225.079,259.078,215.36,247.104,215.36z"/>
</g>
<g>
</g>
<g>
</g>
<g>
</g>
<g>
</g>
<g>
</g>
<g>
</g>
<g>
</g>
<g>
</g>
<g>
</g>
<g>
</g>
<g>
</g>
<g>
</g>
<g>
</g>
<g>
</g>
<g>
</g>
</symbol>



</svg>